<?xml version="1.0" standalone="no"?>
<!DOCTYPE svg PUBLIC "-//W3C//DTD SVG 20010904//EN"
 "http://www.w3.org/TR/2001/REC-SVG-20010904/DTD/svg10.dtd">
<svg version="1.0" xmlns="http://www.w3.org/2000/svg"
 width="873.000000pt" height="840.000000pt" viewBox="0 0 873.000000 840.000000"
 preserveAspectRatio="xMidYMid meet">
<metadata>
Created by potrace 1.16, written by Peter Selinger 2001-2019
</metadata>
<g transform="translate(0.000000,840.000000) scale(0.100000,-0.100000)"
fill="#000000" stroke="none">
<path d="M0 4200 l0 -4200 1909 0 c1885 0 1910 0 1916 20 3 10 -1 33 -10 49
-15 29 -14 31 8 45 12 9 43 15 67 14 25 0 65 3 90 7 l45 8 -39 -32 c-21 -17
-35 -31 -30 -31 5 0 -2 -6 -16 -13 -13 -7 -30 -24 -37 -37 l-12 -25 210 -3
c119 -1 217 2 227 7 11 6 24 6 33 0 7 -5 33 -9 57 -9 31 0 42 4 42 15 0 8 7
15 15 15 9 0 18 -7 21 -15 5 -13 250 -15 2120 -15 l2114 0 0 615 0 616 -20
-11 c-12 -6 -28 -9 -38 -6 -9 3 -30 -1 -46 -9 -47 -25 -53 -17 -10 14 42 30
99 53 108 44 3 -4 6 91 6 210 l0 217 -52 2 c-109 4 -123 4 -135 -5 -7 -5 -30
-6 -50 -2 l-38 7 23 18 c18 15 29 17 48 10 26 -10 32 -2 12 18 -8 8 -8 15 2
27 17 21 42 19 68 -5 15 -15 35 -20 72 -20 l50 0 0 3330 0 3330 -4365 0 -4365
0 0 -4200z m6130 4050 c0 -5 -4 -10 -10 -10 -5 0 -10 5 -10 10 0 6 5 10 10 10
6 0 10 -4 10 -10z m-1995 -40 c-3 -5 -10 -10 -16 -10 -5 0 -9 5 -9 10 0 6 7
10 16 10 8 0 12 -4 9 -10z m670 -10 c-3 -5 -10 -10 -16 -10 -5 0 -9 5 -9 10 0
6 7 10 16 10 8 0 12 -4 9 -10z m1280 -110 c-3 -5 -13 -10 -21 -10 -8 0 -14 5
-14 10 0 6 9 10 21 10 11 0 17 -4 14 -10z m145 -40 c0 -5 -4 -10 -10 -10 -5 0
-10 5 -10 10 0 6 5 10 10 10 6 0 10 -4 10 -10z m-1650 -20 c0 -5 -4 -10 -10
-10 -5 0 -10 5 -10 10 0 6 5 10 10 10 6 0 10 -4 10 -10z m1200 0 c0 -5 -4 -10
-10 -10 -5 0 -10 5 -10 10 0 6 5 10 10 10 6 0 10 -4 10 -10z m-530 -10 c0 -5
-4 -10 -10 -10 -5 0 -10 5 -10 10 0 6 5 10 10 10 6 0 10 -4 10 -10z m-830 -10
c0 -5 -7 -10 -15 -10 -8 0 -15 5 -15 10 0 6 7 10 15 10 8 0 15 -4 15 -10z
m1200 0 c0 -5 -7 -10 -15 -10 -8 0 -15 5 -15 10 0 6 7 10 15 10 8 0 15 -4 15
-10z m-530 -10 c0 -5 -7 -10 -15 -10 -8 0 -15 5 -15 10 0 6 7 10 15 10 8 0 15
-4 15 -10z m1050 -210 c0 -5 -4 -10 -10 -10 -5 0 -10 5 -10 10 0 6 5 10 10 10
6 0 10 -4 10 -10z m-1755 -10 c-3 -5 -10 -10 -16 -10 -5 0 -9 5 -9 10 0 6 7
10 16 10 8 0 12 -4 9 -10z m1200 0 c-3 -5 -10 -10 -16 -10 -5 0 -9 5 -9 10 0
6 7 10 16 10 8 0 12 -4 9 -10z m-530 -10 c-3 -5 -10 -10 -16 -10 -5 0 -9 5 -9
10 0 6 7 10 16 10 8 0 12 -4 9 -10z m-770 -150 c-3 -5 -10 -10 -16 -10 -5 0
-9 5 -9 10 0 6 7 10 16 10 8 0 12 -4 9 -10z m1640 -10 c-3 -5 -13 -10 -21 -10
-8 0 -14 5 -14 10 0 6 9 10 21 10 11 0 17 -4 14 -10z m145 -40 c0 -5 -4 -10
-10 -10 -5 0 -10 5 -10 10 0 6 5 10 10 10 6 0 10 -4 10 -10z m-450 -20 c0 -5
-4 -10 -10 -10 -5 0 -10 5 -10 10 0 6 5 10 10 10 6 0 10 -4 10 -10z m-160 -20
c0 -5 -7 -10 -15 -10 -8 0 -15 5 -15 10 0 6 7 10 15 10 8 0 15 -4 15 -10z
m2640 -70 c0 -5 -5 -10 -11 -10 -5 0 -7 5 -4 10 3 6 8 10 11 10 2 0 4 -4 4
-10z m-3050 -30 c0 -5 -4 -10 -10 -10 -5 0 -10 5 -10 10 0 6 5 10 10 10 6 0
10 -4 10 -10z m-480 -10 c0 -5 -7 -10 -15 -10 -8 0 -15 5 -15 10 0 6 7 10 15
10 8 0 15 -4 15 -10z m320 -10 c0 -5 -7 -10 -15 -10 -8 0 -15 5 -15 10 0 6 7
10 15 10 8 0 15 -4 15 -10z m1090 -94 c0 -3 -4 -8 -10 -11 -5 -3 -10 -1 -10 4
0 6 5 11 10 11 6 0 10 -2 10 -4z m-555 -16 c-3 -5 -10 -10 -16 -10 -5 0 -9 5
-9 10 0 6 7 10 16 10 8 0 12 -4 9 -10z m-890 -110 c-3 -5 -10 -10 -16 -10 -5
0 -9 5 -9 10 0 6 7 10 16 10 8 0 12 -4 9 -10z m320 -10 c-3 -5 -10 -10 -16
-10 -5 0 -9 5 -9 10 0 6 7 10 16 10 8 0 12 -4 9 -10z m1085 -30 c0 -13 -11
-13 -30 0 -12 8 -11 10 8 10 12 0 22 -4 22 -10z m140 -50 c0 -5 -4 -10 -10
-10 -5 0 -10 5 -10 10 0 6 5 10 10 10 6 0 10 -4 10 -10z m-690 -50 c0 -5 -4
-10 -10 -10 -5 0 -10 5 -10 10 0 6 5 10 10 10 6 0 10 -4 10 -10z m-160 -20 c0
-5 -7 -10 -15 -10 -8 0 -15 5 -15 10 0 6 7 10 15 10 8 0 15 -4 15 -10z m2880
-30 c0 -5 -4 -10 -10 -10 -5 0 -10 5 -10 10 0 6 5 10 10 10 6 0 10 -4 10 -10z
m-2120 -154 c0 -3 -4 -8 -10 -11 -5 -3 -10 -1 -10 4 0 6 5 11 10 11 6 0 10 -2
10 -4z m-795 -46 c-3 -5 -10 -10 -16 -10 -5 0 -9 5 -9 10 0 6 7 10 16 10 8 0
12 -4 9 -10z m749 -121 c-7 -11 -34 -12 -34 -1 0 14 11 21 26 15 8 -3 11 -9 8
-14z m146 -39 c0 -5 -4 -10 -10 -10 -5 0 -10 5 -10 10 0 6 5 10 10 10 6 0 10
-4 10 -10z m-450 -20 c0 -5 -4 -10 -10 -10 -5 0 -10 5 -10 10 0 6 5 10 10 10
6 0 10 -4 10 -10z m-160 -20 c0 -5 -7 -10 -15 -10 -8 0 -15 5 -15 10 0 6 7 10
15 10 8 0 15 -4 15 -10z m520 -220 c0 -5 -4 -10 -10 -10 -5 0 -10 5 -10 10 0
6 5 10 10 10 6 0 10 -4 10 -10z m-555 -10 c-3 -5 -10 -10 -16 -10 -5 0 -9 5
-9 10 0 6 7 10 16 10 8 0 12 -4 9 -10z m515 -150 c0 -5 -6 -10 -14 -10 -8 0
-18 5 -21 10 -3 6 3 10 14 10 12 0 21 -4 21 -10z m-284 -75 c-25 -19 -41 -19
-24 0 7 8 20 14 28 14 11 0 10 -3 -4 -14z m95 -58 c-13 -13 -26 -3 -16 12 3 6
11 8 17 5 6 -4 6 -10 -1 -17z m-31 -7 c0 -5 -7 -10 -16 -10 -8 0 -12 5 -9 10
3 6 10 10 16 10 5 0 9 -4 9 -10z m-66 -41 c-3 -5 -10 -7 -15 -3 -5 3 -7 10 -3
15 3 5 10 7 15 3 5 -3 7 -10 3 -15z m203 -14 c3 -9 2 -19 -1 -23 -8 -8 -38 10
-44 26 -6 18 38 14 45 -3z m-257 -20 c0 -8 -7 -15 -15 -15 -16 0 -20 12 -8 23
11 12 23 8 23 -8z m1870 5 c0 -5 -4 -10 -10 -10 -5 0 -10 5 -10 10 0 6 5 10
10 10 6 0 10 -4 10 -10z m-1690 -10 c0 -5 -7 -10 -15 -10 -8 0 -15 5 -15 10 0
6 7 10 15 10 8 0 15 -4 15 -10z m-2683 -36 c-3 -3 -12 -4 -19 -1 -8 3 -5 6 6
6 11 1 17 -2 13 -5z m2883 -74 c0 -5 -4 -10 -10 -10 -5 0 -10 5 -10 10 0 6 5
10 10 10 6 0 10 -4 10 -10z m-1702 -137 c2 -8 -5 -13 -17 -13 -12 0 -21 6 -21
16 0 18 31 15 38 -3z m3202 13 c0 -3 -4 -8 -10 -11 -5 -3 -10 -1 -10 4 0 6 5
11 10 11 6 0 10 -2 10 -4z m1120 -6 c0 -5 -4 -10 -10 -10 -5 0 -10 5 -10 10 0
6 5 10 10 10 6 0 10 -4 10 -10z m-4850 -70 c0 -5 -5 -10 -11 -10 -5 0 -7 5 -4
10 3 6 8 10 11 10 2 0 4 -4 4 -10z m990 -5 c0 -8 9 -15 19 -15 11 0 33 -12 50
-26 17 -14 31 -23 31 -20 0 9 49 -43 62 -67 7 -12 18 -37 24 -55 11 -30 10
-32 -7 -27 -15 5 -18 1 -16 -28 2 -34 49 -102 61 -89 4 3 4 -1 1 -9 -3 -9 1
-22 10 -29 8 -7 15 -17 15 -23 0 -7 -4 -7 -12 1 -15 15 -90 16 -105 1 -5 -5
-27 -11 -46 -12 -30 -2 -38 -7 -46 -29 -5 -14 -8 -28 -6 -30 2 -2 6 -19 8 -38
9 -72 13 -75 121 -84 62 -5 72 -9 62 -24 -3 -6 -28 -4 -63 4 -31 7 -59 12 -60
10 -6 -6 33 -34 62 -43 17 -6 44 -8 61 -6 30 5 33 2 59 -54 30 -67 45 -130 35
-158 -7 -21 -1 -26 -72 58 -14 18 -35 30 -53 32 -17 1 -50 12 -75 24 -25 11
-57 21 -72 21 -43 0 -75 17 -81 41 -8 31 1 38 18 15 16 -22 65 -15 65 9 0 9 9
15 22 15 24 0 17 12 -10 17 -38 8 -57 9 -67 2 -10 -6 -62 -18 -97 -22 -9 -1
-15 -3 -13 -6 3 -2 -1 -12 -9 -20 -8 -9 -17 -29 -20 -45 -3 -16 -8 -31 -11
-34 -3 -3 2 -14 12 -24 18 -20 13 -31 -15 -33 -9 -1 -26 -5 -37 -8 -18 -6 -20
-2 -20 32 0 33 7 46 43 80 23 22 42 43 42 47 0 8 -48 -22 -80 -51 -32 -29 -84
-39 -100 -20 -7 8 -23 15 -35 15 -28 0 -39 24 -20 40 16 13 10 34 -6 25 -5 -4
-9 -1 -9 5 0 6 6 10 13 9 26 -3 35 2 40 21 3 11 2 20 -3 20 -4 0 -6 11 -5 25
3 19 -1 25 -16 25 -10 0 -19 4 -19 9 0 5 -10 7 -22 3 -14 -3 -19 -2 -14 6 5 8
22 10 49 6 42 -7 75 -24 47 -24 -8 -1 10 -10 40 -21 53 -19 101 -21 144 -3 15
6 17 4 11 -14 -7 -25 -2 -27 26 -11 11 5 17 14 14 20 -8 12 32 12 57 -2 29
-16 33 -4 15 41 -10 25 -12 42 -5 46 5 3 8 15 5 25 -3 11 -2 19 2 19 5 0 8 12
7 26 -1 20 -10 32 -35 45 -19 10 -39 23 -45 29 -5 5 -49 10 -98 10 -75 0 -87
2 -81 16 4 11 1 15 -13 12 -11 -2 -22 -7 -25 -12 -11 -15 -29 4 -29 30 0 13
-4 24 -8 24 -4 0 -8 16 -9 35 -1 24 3 35 13 35 8 0 13 3 13 8 -3 20 2 32 16
32 8 0 15 5 15 12 0 6 3 8 7 5 10 -10 53 34 53 54 0 19 24 42 33 32 4 -3 7 -1
7 5 0 15 55 26 119 24 43 -2 52 1 47 13 -3 8 -1 15 4 15 6 0 10 -7 10 -15z
m-990 -24 c3 -1 -2 -5 -10 -11 -8 -5 -11 -12 -7 -16 4 -4 16 1 27 11 21 19 24
13 10 -20 -5 -11 -9 -15 -9 -8 -1 13 -41 5 -41 -8 0 -5 7 -6 15 -3 10 4 15 0
15 -11 0 -9 -9 -19 -20 -22 -11 -3 -20 -14 -20 -24 0 -15 8 -19 38 -19 30 -1
34 -3 19 -11 -9 -6 -15 -14 -12 -20 4 -5 -2 -12 -12 -16 -19 -7 -33 -22 -33
-36 0 -5 4 -5 10 -2 13 8 54 -31 45 -44 -3 -6 -1 -11 4 -11 6 0 11 -5 11 -12
0 -6 -3 -8 -7 -5 -6 7 -21 -15 -47 -69 -9 -17 -22 -34 -31 -37 -8 -4 -15 -13
-15 -21 0 -8 -11 -23 -25 -34 -39 -31 -55 -71 -55 -142 0 -44 -4 -60 -10 -49
-14 24 -6 120 13 158 19 39 17 49 -6 26 -22 -21 -30 -19 -15 5 7 11 21 20 31
20 18 0 42 44 32 60 -3 5 0 10 6 12 8 3 7 8 -3 18 -7 8 -14 25 -15 38 -2 19 2
21 24 18 l26 -5 -24 26 c-17 19 -19 24 -7 20 10 -3 19 0 22 10 7 18 6 20 -14
23 -30 5 -42 0 -37 -14 4 -11 1 -13 -11 -9 -15 6 -15 4 1 -14 16 -18 16 -21 2
-26 -8 -4 -15 -1 -16 6 0 7 -6 -4 -13 -23 -10 -24 -10 -39 -3 -48 6 -7 6 -12
1 -11 -25 4 -34 -4 -34 -32 0 -16 -4 -28 -9 -25 -10 7 -3 44 12 64 6 8 6 12
-3 12 -8 0 -10 8 -6 23 18 64 38 134 41 148 6 28 42 89 49 82 3 -3 6 0 6 7 0
18 40 60 57 60 7 0 13 4 13 9 0 5 8 8 18 6 9 -2 19 -4 22 -4z m2700 -56 c0
-27 -12 -38 -33 -29 -23 8 -28 31 -11 48 20 20 44 9 44 -19z m-3210 -40 c0 -8
-4 -15 -9 -15 -13 0 -22 16 -14 24 11 11 23 6 23 -9z m-50 -5 c0 -5 -4 -10
-10 -10 -5 0 -10 5 -10 10 0 6 5 10 10 10 6 0 10 -4 10 -10z m560 -16 c0 -2
-7 -4 -15 -4 -8 0 -15 4 -15 10 0 5 7 7 15 4 8 -4 15 -8 15 -10z m1850 6 c0
-5 -4 -10 -10 -10 -5 0 -10 5 -10 10 0 6 5 10 10 10 6 0 10 -4 10 -10z m440
-60 c0 -5 -2 -10 -4 -10 -3 0 -8 5 -11 10 -3 6 -1 10 4 10 6 0 11 -4 11 -10z
m-2160 -4 c0 -11 -19 -15 -25 -6 -3 5 1 10 9 10 9 0 16 -2 16 -4z m-98 -40
c-4 -27 -6 -28 -18 -11 -19 26 -17 44 4 42 14 -1 17 -7 14 -31z m1158 8 c0 -2
-7 -4 -15 -4 -8 0 -15 4 -15 10 0 5 7 7 15 4 8 -4 15 -8 15 -10z m17 -66 c-3
-8 -6 -5 -6 6 -1 11 2 17 5 13 3 -3 4 -12 1 -19z m451 -40 c-6 -18 -28 -21
-28 -4 0 9 7 16 16 16 9 0 14 -5 12 -12z m-1776 -63 c-4 -33 -17 -53 -28 -43
-4 5 23 78 29 78 2 0 1 -16 -1 -35z m946 15 c23 -14 32 -26 28 -36 -3 -9 -6
-18 -6 -20 0 -2 -32 -4 -71 -4 l-71 0 6 32 c3 18 12 36 19 40 21 14 61 9 95
-12z m-1568 -10 c0 -5 -2 -10 -4 -10 -3 0 -8 5 -11 10 -3 6 -1 10 4 10 6 0 11
-4 11 -10z m4330 -30 c0 -5 -5 -10 -11 -10 -5 0 -7 5 -4 10 3 6 8 10 11 10 2
0 4 -4 4 -10z m-2775 -40 c4 -7 -3 -8 -22 -4 -38 9 -42 14 -10 14 14 0 29 -5
32 -10z m439 -12 c14 -19 23 -68 13 -68 -2 0 -17 7 -33 14 -16 8 -46 17 -66
19 -52 5 -56 13 -17 36 45 28 84 27 103 -1z m-641 5 c-7 -2 -19 -2 -25 0 -7 3
-2 5 12 5 14 0 19 -2 13 -5z m-1549 -29 c27 -10 20 -62 -9 -76 -21 -9 -28 -8
-45 7 -45 41 -5 92 54 69z m1716 -10 c36 -8 75 -12 86 -10 14 4 24 0 27 -8 12
-29 -139 -13 -188 20 -26 18 -8 18 75 -2z m-494 -38 c-4 -18 -1 -28 11 -35 17
-10 16 -10 -2 -11 -18 -1 -17 -2 4 -11 21 -8 23 -14 19 -59 -3 -28 -2 -53 3
-55 4 -3 5 -15 2 -28 -3 -16 -2 -18 5 -8 12 17 23 -1 11 -19 -11 -19 -12 -33
0 -25 5 3 12 1 16 -5 3 -5 -1 -10 -9 -10 -9 0 -16 -8 -16 -17 0 -24 -38 52
-57 112 -16 54 -10 195 9 195 6 0 8 -10 4 -24z m922 15 c9 -5 -6 -10 -40 -14
-29 -4 -63 -9 -75 -13 -15 -4 -23 -2 -23 5 0 7 4 10 8 7 5 -3 28 1 53 9 53 16
60 17 77 6z m-1400 -62 c-3 -8 -7 -3 -11 10 -4 17 -3 21 5 13 5 -5 8 -16 6
-23z m752 -76 c0 -7 -7 -13 -16 -13 -8 0 -13 -4 -9 -10 3 -5 13 -6 22 -3 11 4
14 2 11 -8 -3 -8 -13 -14 -24 -14 -14 0 -19 8 -21 32 -1 25 2 31 18 30 10 -1
19 -7 19 -14z m52 9 c-7 -5 -10 -16 -6 -25 4 -12 1 -17 -10 -17 -19 0 -22 36
-3 43 20 9 33 7 19 -1z m-1338 -23 c-3 -5 -10 -7 -15 -3 -5 3 -7 10 -3 15 3 5
10 7 15 3 5 -3 7 -10 3 -15z m5446 11 c0 -5 -5 -10 -11 -10 -5 0 -7 5 -4 10 3
6 8 10 11 10 2 0 4 -4 4 -10z m-615 -28 c9 -25 -18 -46 -44 -33 -25 14 -27 37
-4 49 21 12 39 6 48 -16z m-3600 -9 c2 -7 0 -13 -5 -13 -6 0 -9 -6 -7 -12 1
-7 -6 -13 -17 -13 -13 0 -20 8 -22 26 -2 23 1 27 22 25 13 0 26 -7 29 -13z
m-905 -39 c0 -8 -5 -12 -10 -9 -6 4 -8 11 -5 16 9 14 15 11 15 -7z m-530 -4
c0 -5 -4 -10 -10 -10 -5 0 -10 5 -10 10 0 6 5 10 10 10 6 0 10 -4 10 -10z
m824 -6 c3 -8 2 -12 -4 -9 -6 3 -10 10 -10 16 0 14 7 11 14 -7z m516 6 c0 -5
-5 -10 -11 -10 -5 0 -7 5 -4 10 3 6 8 10 11 10 2 0 4 -4 4 -10z m-900 -10 c0
-5 -4 -10 -10 -10 -5 0 -10 5 -10 10 0 6 5 10 10 10 6 0 10 -4 10 -10z m3867
4 c-3 -3 -12 -4 -19 -1 -8 3 -5 6 6 6 11 1 17 -2 13 -5z m-217 -24 c0 -5 -5
-10 -11 -10 -5 0 -7 5 -4 10 3 6 8 10 11 10 2 0 4 -4 4 -10z m-4055 -10 c-3
-5 -10 -10 -16 -10 -5 0 -9 5 -9 10 0 6 7 10 16 10 8 0 12 -4 9 -10z m2085
-21 c0 -5 -7 -9 -15 -9 -9 0 -12 6 -9 15 6 15 24 11 24 -6z m2466 7 c22 -17
11 -35 -13 -20 -19 12 -29 34 -16 34 5 0 18 -6 29 -14z m-3691 -26 c3 -5 1
-10 -4 -10 -6 0 -11 5 -11 10 0 6 2 10 4 10 3 0 8 -4 11 -10z m1120 -27 c68
-21 77 -33 30 -35 -59 -2 -64 -2 -144 15 -82 18 -92 24 -71 38 19 12 119 3
185 -18z m-1685 7 c0 -5 -7 -10 -15 -10 -8 0 -15 5 -15 10 0 6 7 10 15 10 8 0
15 -4 15 -10z m60 -20 c0 -5 -4 -10 -9 -10 -6 0 -13 5 -16 10 -3 6 1 10 9 10
9 0 16 -4 16 -10z m676 -17 c-3 -16 -8 -39 -11 -53 -21 -107 -30 -125 -55
-123 -23 2 -23 2 -5 -6 11 -5 14 -10 7 -10 -7 -1 -11 -5 -8 -9 2 -4 1 -14 -3
-21 -10 -16 -61 42 -61 69 0 11 -8 24 -17 30 -14 9 -14 10 -2 7 12 -4 15 2 14
24 -1 16 3 29 8 29 6 0 7 3 4 7 -10 9 13 33 33 33 9 0 32 11 51 24 45 32 52
32 45 -1z m1384 -12 c15 -28 13 -39 -9 -46 -21 -6 -61 13 -61 30 0 35 53 46
70 16z m-1924 -32 c-24 -28 -30 -42 -27 -62 1 -4 -6 -10 -15 -14 -13 -5 -13
-7 -2 -14 7 -5 8 -9 2 -9 -7 0 -10 -14 -7 -35 2 -19 0 -35 -4 -35 -5 0 -19 -3
-33 -7 -22 -6 -24 -5 -11 10 7 9 17 14 22 11 5 -3 9 2 9 12 0 14 -2 14 -16 3
-12 -10 -17 -10 -23 0 -6 9 -10 6 -16 -11 -4 -12 -7 -26 -6 -30 0 -4 -13 -15
-29 -23 -17 -9 -28 -20 -25 -25 4 -6 -1 -20 -9 -32 -9 -12 -16 -18 -16 -13 -1
6 -9 -8 -19 -30 -11 -23 -22 -78 -26 -127 -7 -85 -7 -87 -30 -78 -14 5 -26 5
-34 -3 -8 -8 -11 -8 -11 0 0 6 -8 14 -17 16 -15 4 -14 6 5 12 13 4 21 13 18
20 -2 6 0 18 4 25 5 8 7 17 4 22 -6 9 -74 -22 -74 -34 0 -4 -13 -8 -30 -8 -16
0 -30 4 -30 9 0 5 24 28 54 52 30 24 59 55 65 68 11 21 8 20 -28 -9 -65 -51
-124 -122 -109 -131 11 -7 11 -12 0 -29 -7 -12 -8 -20 -2 -21 19 -3 25 -5 49
-18 28 -16 25 -39 -20 -156 -18 -44 -36 -92 -41 -106 l-9 -26 -37 18 c-73 38
-148 10 -155 -56 -2 -16 -8 -39 -15 -50 -10 -18 -11 -18 -12 -2 0 10 -4 15
-10 12 -5 -3 -10 4 -10 16 0 18 -2 20 -16 8 -33 -27 -104 -195 -104 -246 0
-12 -4 -23 -9 -23 -5 0 -15 -17 -22 -37 -7 -21 -22 -56 -34 -78 -12 -22 -26
-51 -30 -65 -7 -24 -55 -101 -55 -89 0 3 6 19 14 35 37 76 55 124 70 180 19
72 20 94 6 94 -5 0 -10 -6 -10 -14 0 -8 -4 -17 -9 -20 -17 -11 41 189 75 259
19 38 57 97 85 130 63 73 216 235 223 235 3 0 3 -8 -1 -17 -3 -10 -3 -15 1
-12 4 4 9 17 11 30 3 14 48 66 102 119 54 52 175 170 269 262 160 157 220 209
160 137z m-206 6 c0 -16 -27 -32 -37 -22 -3 4 -3 13 0 22 8 20 37 20 37 0z
m-119 -8 c-1 -12 -15 -9 -19 4 -3 6 1 10 8 8 6 -3 11 -8 11 -12z m189 3 c0 -5
-2 -10 -4 -10 -3 0 -8 5 -11 10 -3 6 -1 10 4 10 6 0 11 -4 11 -10z m1548 -5
c73 -8 102 -23 109 -57 3 -15 9 -28 13 -28 5 0 6 -19 3 -42 -4 -42 -4 -43 11
-18 18 30 21 21 4 -15 -6 -14 -15 -25 -20 -25 -4 0 -8 -5 -8 -11 0 -18 -41
-70 -51 -64 -5 4 -9 1 -9 -5 0 -17 -99 -6 -139 15 -78 40 -171 113 -204 160
l-22 30 25 -17 c102 -72 173 -101 243 -99 26 1 56 -3 66 -8 12 -7 22 -6 29 1
9 9 12 7 12 -7 1 -17 3 -17 15 5 8 14 14 30 15 36 0 16 -138 56 -197 58 -62 1
-73 17 -49 65 16 29 42 40 81 35 11 -2 44 -5 73 -9z m2272 5 c0 -5 -7 -10 -15
-10 -8 0 -15 5 -15 10 0 6 7 10 15 10 8 0 15 -4 15 -10z m-2455 -80 c-11 -19
-28 -6 -31 25 l-3 28 21 -20 c11 -12 17 -26 13 -33z m-65 14 c0 -16 -16 -19
-25 -4 -8 13 4 32 16 25 5 -4 9 -13 9 -21z m698 -33 c-2 -9 -11 -17 -21 -19
-21 -4 -35 27 -17 38 19 12 42 0 38 -19z m-2384 -40 c6 -10 -31 -47 -40 -39
-6 7 17 48 28 48 4 0 9 -4 12 -9z m4496 -31 c0 -5 -4 -10 -10 -10 -5 0 -10 5
-10 10 0 6 5 10 10 10 6 0 10 -4 10 -10z m-4625 -10 c3 -5 1 -10 -4 -10 -6 0
-11 5 -11 10 0 6 2 10 4 10 3 0 8 -4 11 -10z m4002 -6 c-3 -3 -12 -4 -19 -1
-8 3 -5 6 6 6 11 1 17 -2 13 -5z m-3947 -22 c0 -13 -12 -22 -22 -16 -10 6 -1
24 13 24 5 0 9 -4 9 -8z m95 -23 c0 -8 -5 -14 -12 -14 -6 0 -15 -3 -19 -7 -12
-13 -24 -9 -24 7 0 8 7 15 15 15 8 0 15 5 15 11 0 6 6 9 13 7 6 -3 12 -11 12
-19z m455 11 c0 -5 -5 -9 -11 -7 -6 1 -13 -6 -14 -15 -2 -10 1 -18 6 -18 5 0
9 -9 9 -19 0 -10 7 -21 15 -25 9 -3 15 0 15 10 0 8 4 13 9 9 6 -3 1 -20 -10
-40 -20 -33 -20 -34 -40 -14 -20 20 -27 45 -9 34 13 -8 13 1 -2 42 -10 29 -10
36 2 43 20 13 30 12 30 0z m1191 -67 c37 -44 68 -61 124 -68 68 -8 125 -24
125 -35 0 -19 29 3 40 31 15 36 35 51 25 19 -7 -22 -6 -22 16 -6 35 24 98 21
134 -8 l30 -24 12 29 c25 59 104 26 89 -37 -8 -32 -50 -42 -76 -19 -19 18 -20
17 -20 -14 0 -37 -23 -86 -46 -99 -16 -9 -16 -9 68 -77 9 -8 31 -21 47 -29 16
-9 36 -24 43 -33 7 -10 31 -31 53 -47 82 -59 263 -267 291 -334 8 -20 13 -45
10 -54 -2 -10 1 -18 7 -18 7 0 23 -26 36 -56 l25 -57 -48 -45 c-34 -32 -44
-48 -37 -55 8 -8 11 -7 11 4 0 11 2 11 9 1 6 -10 17 -3 43 28 l36 41 20 -33
c11 -18 32 -64 47 -103 15 -38 36 -82 46 -97 24 -33 151 -299 190 -396 19 -47
26 -79 21 -88 -9 -17 -151 -124 -163 -124 -5 0 -6 26 -3 58 7 73 6 100 -5 192
-5 41 -10 82 -10 90 -1 8 -3 44 -5 80 -5 87 -17 149 -28 156 -6 4 -8 -1 -5
-12 9 -30 10 -172 2 -259 -6 -71 -6 -78 7 -61 14 18 15 18 22 -9 9 -34 1 -43
-24 -27 -11 6 -21 8 -25 2 -3 -5 -1 -11 5 -15 5 -3 10 -31 10 -61 0 -43 4 -56
18 -62 9 -4 18 -14 20 -22 3 -11 -1 -11 -16 3 -10 9 -23 17 -29 17 -26 0 -70
-89 -52 -107 6 -6 2 -24 -9 -47 -14 -29 -20 -34 -25 -22 -4 9 -10 16 -14 15
-27 -4 -25 2 16 47 12 13 12 17 1 24 -12 7 -11 12 3 28 9 10 17 28 17 40 0 12
4 22 9 22 13 0 2 236 -14 305 -12 50 -29 85 -42 85 -13 0 -15 -8 -17 -60 -1
-14 -4 -30 -8 -36 -4 -5 -4 -25 -2 -44 4 -21 1 -36 -8 -41 -11 -7 -11 -9 0 -9
8 0 16 9 19 20 9 33 30 24 25 -11 -3 -21 -12 -33 -31 -40 -14 -6 -28 -14 -31
-19 -8 -14 -82 -70 -91 -70 -22 0 -4 28 36 59 43 32 57 63 35 76 -6 4 -10 16
-8 27 4 31 -15 32 -46 2 -14 -15 -28 -25 -29 -23 -1 2 -8 12 -15 21 -11 14 -9
21 17 46 45 42 41 58 -12 52 -15 -1 -17 3 -12 19 4 14 -1 30 -13 46 -18 23
-20 36 -15 153 3 70 7 129 9 131 3 3 21 -12 42 -32 21 -21 42 -34 46 -30 4 4
4 0 1 -8 -4 -10 3 -22 17 -32 13 -8 39 -29 58 -46 37 -33 48 -34 31 -3 -6 12
-11 30 -11 42 0 12 -21 43 -47 71 -27 27 -49 53 -49 59 -1 5 -2 15 -3 20 -2
15 -17 12 -36 -6 -24 -25 -31 -8 -12 31 15 32 15 34 -1 28 -14 -6 -15 -4 -5 9
7 8 10 18 6 22 -4 4 2 9 14 12 15 4 19 11 16 25 -5 18 -6 18 -18 3 -8 -11 -14
-13 -19 -6 -3 6 -2 13 4 17 19 12 11 38 -10 32 -11 -3 -20 -1 -20 4 0 5 5 9
10 9 22 0 8 21 -34 52 -35 26 -44 39 -43 60 2 29 12 37 20 16 3 -8 6 -6 6 5 1
9 -3 17 -9 17 -5 0 -10 7 -10 15 0 8 -9 15 -20 15 -21 0 -27 15 -10 25 17 10
12 23 -25 59 -19 20 -35 42 -35 51 0 9 -5 13 -10 10 -8 -5 -8 -11 0 -20 12
-14 3 -48 -11 -39 -15 9 -10 -13 6 -26 8 -7 14 -23 13 -36 -2 -17 -5 -20 -15
-13 -6 6 -9 17 -6 25 3 8 0 14 -7 14 -9 0 -10 -14 -6 -54 7 -53 7 -54 -16 -49
l-23 5 23 -17 c18 -13 26 -14 37 -5 15 12 45 7 45 -7 -1 -25 -21 -37 -59 -35
-31 2 -41 -1 -41 -12 0 -10 -6 -13 -17 -9 -12 5 -15 2 -10 -10 4 -11 1 -17 -8
-17 -8 0 -12 8 -10 19 2 11 -2 22 -10 25 -22 8 -7 -116 17 -132 10 -7 16 -18
13 -23 -4 -5 5 -9 19 -9 19 0 26 -5 26 -19 0 -26 -16 -35 -24 -14 -6 15 -9 15
-16 3 -13 -21 7 -55 25 -40 18 15 23 3 21 -52 -1 -27 1 -48 6 -48 4 0 7 -12 7
-27 0 -16 3 -58 6 -95 l6 -68 -26 0 c-15 0 -24 4 -20 10 4 6 10 8 15 5 7 -4 7
16 1 113 0 12 -5 22 -10 22 -5 0 -7 -25 -6 -55 2 -30 0 -55 -4 -55 -4 0 -8 6
-8 13 -1 31 -25 97 -34 91 -7 -4 -6 -10 1 -19 8 -10 7 -15 -2 -19 -9 -4 -9 -8
-2 -11 6 -3 9 -17 6 -30 -2 -14 0 -25 6 -25 9 0 25 -36 23 -52 0 -4 13 -5 29
-1 24 4 30 2 30 -11 0 -22 36 -13 63 15 10 11 21 19 24 19 4 0 -6 -13 -21 -29
-19 -20 -40 -30 -66 -33 -37 -3 -38 -2 -23 14 9 10 12 18 7 18 -21 0 -32 -24
-27 -56 5 -27 2 -34 -11 -34 -10 0 -15 -4 -12 -8 3 -5 8 -24 11 -43 11 -66 17
-94 25 -104 13 -17 22 -55 13 -55 -10 0 -50 90 -46 102 2 5 -1 8 -6 8 -5 0
-12 7 -15 16 -4 9 -2 13 5 8 7 -4 10 -1 7 7 -3 8 -12 13 -21 11 -9 -1 -21 6
-27 17 -9 18 -17 20 -55 14 -32 -4 -45 -2 -45 6 0 7 -5 9 -11 5 -8 -5 -8 -1 0
14 8 16 6 23 -11 38 -18 16 -20 16 -15 3 5 -15 3 -15 -23 -2 -34 16 -47 48
-30 68 7 8 9 15 5 15 -4 0 5 12 20 26 15 14 34 23 41 20 8 -3 21 -9 29 -12 10
-4 15 0 15 11 0 9 -4 14 -9 11 -5 -4 -7 2 -5 11 7 30 -12 47 -53 48 -32 0 -38
3 -36 20 1 11 -5 24 -13 28 -9 5 -14 18 -12 30 1 12 -1 28 -6 36 -6 9 1 21 20
37 l29 23 -27 1 c-28 0 -68 42 -47 49 6 2 2 13 -11 26 -18 19 -19 28 -12 62 6
25 6 47 0 57 -5 9 -8 27 -7 39 1 12 -1 30 -6 40 -4 9 -4 29 -1 43 4 15 2 32
-5 41 -10 11 -10 16 1 23 7 4 10 15 7 24 -3 8 -3 18 2 20 9 6 2 66 -8 66 -3 0
-6 42 -6 92 0 51 -3 110 -7 130 -6 32 -4 40 13 49 12 6 22 9 23 7 10 -13 31
-98 25 -98 -5 0 -9 -5 -9 -11 0 -5 5 -7 10 -4 6 3 10 5 10 3 1 -2 3 -20 6 -42
4 -22 1 -48 -6 -61 -6 -12 -10 -37 -8 -56 2 -26 7 -33 21 -31 10 2 17 -3 17
-12 0 -8 4 -17 9 -21 13 -7 41 22 36 38 -10 31 -12 87 -3 87 6 0 9 29 6 75 -4
94 8 84 17 -13 8 -93 75 -324 95 -330 10 -2 11 -1 4 5 -6 4 -14 26 -17 48 -14
88 -19 111 -33 132 -15 25 -20 118 -5 108 5 -3 12 -1 16 5 3 5 -3 10 -13 10
-20 0 -37 36 -22 45 11 7 -41 105 -55 105 -7 0 -10 -14 -7 -37 l3 -38 -14 30
c-8 17 -22 47 -31 69 -25 57 -31 36 -8 -26 34 -89 35 -95 8 -50 -14 24 -31 60
-37 81 -11 36 -12 37 -62 38 -29 1 -76 6 -105 11 -67 11 -120 60 -168 154 -37
73 -44 98 -16 57 9 -14 29 -39 43 -56z m2485 53 c22 -17 11 -35 -13 -20 -19
12 -29 34 -16 34 5 0 18 -6 29 -14z m-4209 -52 c-9 -9 -28 6 -21 18 4 6 10 6
17 -1 6 -6 8 -13 4 -17z m-596 6 c25 -14 25 -57 -1 -65 -42 -13 -78 33 -48 63
15 15 24 15 49 2z m704 -20 c3 -5 -1 -10 -9 -10 -9 0 -16 5 -16 10 0 6 4 10 9
10 6 0 13 -4 16 -10z m369 -48 c3 -5 -1 -9 -9 -9 -8 0 -15 4 -15 9 0 4 4 8 9
8 6 0 12 -4 15 -8z m46 -58 c0 -8 -5 -12 -11 -9 -6 4 -23 11 -37 15 -25 8 -24
8 11 9 27 1 37 -3 37 -15z m3754 8 c2 -4 -4 -13 -15 -20 -16 -11 -19 -9 -19 8
0 19 24 28 34 12z m-2787 -58 c-9 -9 -28 6 -21 18 4 6 10 6 17 -1 6 -6 8 -13
4 -17z m-987 4 c0 -9 4 -8 10 2 6 9 10 10 10 3 0 -20 -19 -25 -36 -9 -14 15
-14 16 0 16 9 0 16 -6 16 -12z m5267 -4 c-3 -3 -12 -4 -19 -1 -8 3 -5 6 6 6
11 1 17 -2 13 -5z m-212 -24 c3 -5 -1 -10 -10 -10 -9 0 -13 5 -10 10 3 6 8 10
10 10 2 0 7 -4 10 -10z m-5554 -33 c-1 -12 -15 -9 -19 4 -3 6 1 10 8 8 6 -3
11 -8 11 -12z m2614 -29 c27 -32 34 -93 15 -129 -29 -52 -113 -59 -162 -12
-35 34 -43 72 -24 117 28 68 123 81 171 24z m-1861 -20 c-20 -29 -44 -60 -52
-68 -26 -28 7 31 45 78 48 59 52 53 7 -10z m2337 39 c-1 -12 -15 -9 -19 4 -3
6 1 10 8 8 6 -3 11 -8 11 -12z m-2794 -9 c7 -1 10 -5 7 -10 -3 -4 0 -8 5 -8 6
0 11 -15 11 -33 0 -24 -10 -45 -35 -75 -38 -44 -65 -47 -57 -6 3 17 0 24 -12
24 -23 0 -20 -38 4 -58 18 -15 19 -20 7 -43 -8 -14 -22 -48 -32 -75 -10 -27
-25 -57 -33 -66 -17 -20 -42 -24 -42 -7 0 16 80 272 89 284 4 6 8 20 9 32 1
31 23 52 47 46 11 -2 25 -5 32 -5z m3823 2 c0 -5 -4 -10 -10 -10 -5 0 -10 5
-10 10 0 6 5 10 10 10 6 0 10 -4 10 -10z m-2201 -57 c24 -90 31 -132 31 -195
0 -46 -4 -68 -12 -68 -6 0 -3 -6 8 -14 15 -12 17 -18 8 -33 -23 -38 -39 -20
-49 57 -8 57 -14 75 -25 74 -9 0 -10 1 -2 3 12 4 17 27 12 48 -8 30 -19 142
-15 153 9 25 34 11 44 -25z m876 28 c3 -5 -2 -16 -11 -25 -21 -22 -62 -3 -43
20 13 16 45 19 54 5z m-2865 -20 c0 -18 -18 -21 -30 -6 -10 13 -9 15 9 15 11
0 21 -4 21 -9z m1839 -63 c17 -71 13 -88 -9 -39 -20 43 -28 114 -11 96 4 -6
13 -31 20 -57z m1311 32 c0 -5 -4 -10 -9 -10 -6 0 -13 5 -16 10 -3 6 1 10 9
10 9 0 16 -4 16 -10z m-2580 -15 c10 -12 7 -15 -14 -21 -31 -7 -65 14 -44 27
20 13 44 11 58 -6z m5170 -5 c0 -5 -7 -10 -15 -10 -8 0 -15 5 -15 10 0 6 7 10
15 10 8 0 15 -4 15 -10z m-4870 -26 c0 -14 -4 -23 -10 -19 -6 4 -7 11 -4 17 4
7 2 8 -4 4 -7 -4 -12 -16 -12 -27 0 -12 4 -17 11 -13 7 4 10 1 7 -7 -3 -8 2
-19 11 -26 14 -10 12 -11 -9 -7 -15 3 -20 2 -14 -3 24 -18 24 -54 0 -140 -14
-48 -27 -124 -30 -168 -4 -70 -49 -231 -69 -252 -9 -9 -4 409 5 451 5 22 27
79 50 128 40 87 68 112 68 62z m-110 0 c0 -14 -14 -33 -21 -28 -15 9 -10 31 6
31 8 0 15 -1 15 -3z m2330 -4 c0 -5 -4 -10 -10 -10 -5 0 -10 5 -10 10 0 6 5
10 10 10 6 0 10 -4 10 -10z m-1720 -39 c0 -14 -18 -23 -30 -16 -6 4 -8 11 -5
16 8 12 35 12 35 0z m-411 -61 c-3 -60 -19 -79 -19 -21 0 38 8 71 16 71 3 0 4
-23 3 -50z m-482 4 c-6 -6 -47 9 -47 17 0 5 11 3 25 -3 14 -6 24 -13 22 -14z
m83 10 c0 -2 -7 -4 -15 -4 -8 0 -15 4 -15 10 0 5 7 7 15 4 8 -4 15 -8 15 -10z
m4000 1 c0 -8 -4 -15 -9 -15 -13 0 -22 16 -14 24 11 11 23 6 23 -9z m-3956
-113 c5 -62 3 -82 -6 -80 -6 2 -21 -22 -32 -52 -11 -30 -23 -56 -28 -58 -4 -2
-1 -11 8 -19 13 -13 13 -18 1 -32 -20 -23 -27 -59 -14 -74 30 -31 58 -97 49
-114 -5 -10 -12 -31 -16 -48 -5 -24 -4 -26 4 -12 6 9 19 17 28 16 10 0 12 -3
5 -6 -26 -10 -3 -143 24 -143 10 0 9 10 -4 41 -13 35 -14 42 -2 50 10 6 16 2
21 -14 3 -12 7 -17 8 -12 1 6 10 -30 21 -80 10 -49 35 -139 54 -198 20 -59 33
-112 30 -117 -4 -6 -2 -10 3 -10 6 0 12 -7 16 -15 10 -27 -8 -15 -39 25 -16
21 -36 39 -44 40 -9 0 -11 6 -6 18 4 9 10 27 12 39 4 19 1 22 -23 20 -33 -2
-62 39 -66 95 -2 20 -7 34 -12 31 -5 -4 -6 6 -2 22 6 25 5 27 -8 16 -13 -11
-18 -10 -29 1 -27 28 -47 63 -47 84 0 12 -4 24 -8 26 -11 4 -52 86 -52 104 0
9 -5 12 -12 8 -8 -5 -9 -2 -5 10 4 10 4 29 0 44 -6 24 -7 25 -14 7 -6 -17 -8
-16 -8 8 -1 16 -5 26 -9 23 -5 -3 -9 12 -10 32 -2 37 12 71 88 206 51 92 100
194 100 207 0 8 3 9 9 4 5 -6 11 -47 15 -93z m1276 68 c12 -23 12 -24 -3 -11
-10 7 -17 20 -17 29 0 18 3 16 20 -18z m-28 -45 c10 -33 18 -68 18 -77 0 -39
-59 -7 -61 33 -1 10 -2 22 -4 27 -1 4 -5 19 -9 34 -9 32 0 50 22 46 10 -2 23
-26 34 -63z m318 49 c0 -8 -5 -12 -10 -9 -6 4 -8 11 -5 16 9 14 15 11 15 -7z
m830 -4 c0 -5 -4 -10 -10 -10 -5 0 -10 5 -10 10 0 6 5 10 10 10 6 0 10 -4 10
-10z m-55 -30 c-3 -5 -10 -10 -16 -10 -5 0 -9 5 -9 10 0 6 7 10 16 10 8 0 12
-4 9 -10z m-1857 -31 c-3 -8 -7 -3 -11 10 -4 17 -3 21 5 13 5 -5 8 -16 6 -23z
m-144 -16 c-7 -53 -34 -123 -46 -123 -6 0 -6 6 2 15 7 8 9 15 4 15 -4 0 -3 5
4 12 7 7 12 19 12 28 0 19 20 90 25 90 2 0 1 -17 -1 -37z m199 12 c-7 -21 -12
-19 -10 4 0 11 5 18 9 15 4 -3 5 -11 1 -19z m30 -26 c2 -18 6 -41 9 -49 5 -12
34 -167 41 -220 1 -8 11 -18 22 -22 19 -6 18 -6 -2 -7 -18 -1 -23 -7 -23 -28
0 -47 -8 -20 -14 51 -3 38 -16 112 -27 165 -23 104 -23 107 -21 135 3 29 11
15 15 -25z m781 26 c-4 -8 -8 -15 -10 -15 -2 0 -4 7 -4 15 0 8 4 15 10 15 5 0
7 -7 4 -15z m2016 -6 c0 -5 -7 -9 -15 -9 -15 0 -20 12 -9 23 8 8 24 -1 24 -14z
m-1260 -9 c0 -5 -7 -7 -15 -4 -8 4 -12 10 -9 15 6 11 24 2 24 -11z m2976 6
c22 -17 11 -35 -13 -20 -19 12 -29 34 -16 34 5 0 18 -6 29 -14z m-4586 -46 c0
-11 -5 -20 -11 -20 -6 0 -9 6 -6 14 3 8 1 17 -6 20 -7 2 -4 5 6 5 11 1 17 -6
17 -19z m1765 10 c3 -5 1 -10 -4 -10 -6 0 -11 5 -11 10 0 6 2 10 4 10 3 0 8
-4 11 -10z m-2165 -75 c0 -14 -4 -25 -9 -25 -4 0 -6 11 -3 25 2 14 6 25 8 25
2 0 4 -11 4 -25z m455 -30 c4 -28 9 -52 10 -55 2 -3 6 -37 10 -75 13 -144 27
-256 36 -287 11 -40 12 -58 1 -58 -12 0 -31 130 -57 384 -2 22 -7 65 -11 95
-3 31 -4 54 -1 51 3 -3 9 -28 12 -55z m-1236 28 c-7 -10 -22 -28 -32 -40 -19
-22 -19 -22 2 -16 19 5 18 2 -8 -26 -30 -32 -51 -40 -51 -18 0 12 87 117 97
117 3 0 -1 -8 -8 -17z m691 -28 c0 -25 -4 -45 -9 -45 -5 0 -8 19 -6 43 5 51 4
47 10 47 3 0 5 -20 5 -45z m56 33 c4 -7 3 -8 -4 -4 -7 4 -12 1 -12 -9 0 -9 -4
-14 -10 -10 -10 6 -2 35 10 35 5 0 12 -5 16 -12z m1144 3 c0 -6 -4 -12 -8 -15
-5 -3 -9 1 -9 9 0 8 4 15 9 15 4 0 8 -4 8 -9z m68 -51 c7 -12 10 -25 7 -30 -4
-6 2 -7 12 -3 15 5 16 3 6 -8 -15 -16 -17 -59 -3 -59 6 0 10 -18 10 -39 0 -34
-3 -40 -20 -38 -21 1 -23 5 -20 53 1 18 -3 35 -9 38 -11 7 -13 106 -2 106 3 0
12 -9 19 -20z m3876 -8 c2 -4 -4 -13 -15 -20 -16 -11 -19 -9 -19 8 0 19 24 28
34 12z m-3166 -40 c6 -18 -15 -14 -22 4 -4 10 -1 14 6 12 6 -2 14 -10 16 -16z
m-2287 -5 c-1 -12 -15 -9 -19 4 -3 6 1 10 8 8 6 -3 11 -8 11 -12z m829 -16 c0
-5 -7 -12 -16 -15 -22 -9 -24 -8 -24 9 0 8 9 15 20 15 11 0 20 -4 20 -9z
m1300 -1 c0 -5 -2 -10 -4 -10 -3 0 -8 5 -11 10 -3 6 -1 10 4 10 6 0 11 -4 11
-10z m-1509 -27 c-12 -20 -14 -14 -5 12 4 9 9 14 11 11 3 -2 0 -13 -6 -23z
m1506 -15 c-3 -8 -6 -5 -6 6 -1 11 2 17 5 13 3 -3 4 -12 1 -19z m-1067 -33
c21 -23 22 -25 5 -19 -24 8 -65 44 -65 56 0 13 32 -7 60 -37z m359 28 c-18
-23 -43 -42 -48 -37 -5 4 47 54 56 54 3 0 -1 -8 -8 -17z m-1119 -8 c7 -9 8
-15 2 -15 -5 0 -12 7 -16 15 -3 8 -4 15 -2 15 2 0 9 -7 16 -15z m335 -5 c-4
-13 -1 -22 9 -26 9 -3 16 -13 16 -22 0 -13 -6 -10 -25 11 -22 22 -24 29 -13
42 18 20 20 19 13 -5z m2765 5 c0 -8 -4 -15 -9 -15 -13 0 -22 16 -14 24 11 11
23 6 23 -9z m-2725 -15 c3 -6 -1 -7 -9 -4 -18 7 -21 14 -7 14 6 0 13 -4 16
-10z m4625 0 c0 -5 -4 -10 -10 -10 -5 0 -10 5 -10 10 0 6 5 10 10 10 6 0 10
-4 10 -10z m-4784 -35 c-3 -8 -10 -15 -15 -15 -5 0 -4 11 2 25 12 25 23 16 13
-10z m3488 3 c20 -33 -29 -82 -61 -62 -25 16 -28 42 -7 65 21 23 52 21 68 -3z
m-3174 -8 c0 -5 -4 -10 -10 -10 -5 0 -10 5 -10 10 0 6 5 10 10 10 6 0 10 -4
10 -10z m510 3 c0 -5 -15 -16 -33 -26 l-32 -17 30 25 c33 27 35 28 35 18z
m3730 -3 c0 -5 -4 -10 -10 -10 -5 0 -10 5 -10 10 0 6 5 10 10 10 6 0 10 -4 10
-10z m-3500 -10 c8 -5 11 -12 8 -16 -10 -9 -38 3 -38 16 0 12 10 13 30 0z
m-153 -32 c-3 -8 -6 -5 -6 6 -1 11 2 17 5 13 3 -3 4 -12 1 -19z m263 12 c0 -5
-7 -10 -15 -10 -8 0 -15 5 -15 10 0 6 7 10 15 10 8 0 15 -4 15 -10z m-1050
-25 c11 -13 10 -14 -4 -9 -9 3 -16 10 -16 15 0 13 6 11 20 -6z m716 0 c-26
-19 -42 -19 -26 0 7 8 20 15 29 15 13 -1 13 -3 -3 -15z m230 -17 c2 -21 -1
-26 -14 -21 -15 5 -14 3 2 -15 17 -20 15 -27 -6 -23 -12 2 -10 -17 2 -24 7 -4
7 -13 0 -26 -8 -13 -7 -19 0 -19 7 0 9 -29 6 -87 -4 -95 19 -362 40 -458 14
-63 24 -153 23 -210 l-2 -70 -7 78 c-6 61 -12 83 -29 99 -17 15 -20 23 -10 34
6 8 7 14 2 14 -5 0 -9 19 -8 43 1 23 -1 47 -5 52 -22 30 -35 171 -35 372 0 90
-3 163 -6 163 -3 0 -6 30 -7 66 0 64 0 65 25 62 20 -2 27 -9 29 -30z m-638
-85 c5 -40 5 -73 0 -73 -4 0 -8 3 -8 8 0 4 -3 41 -5 82 -6 91 1 82 13 -17z
m277 47 c-7 -11 -55 -19 -55 -9 0 5 7 9 15 9 8 0 15 4 15 10 0 5 7 7 15 4 8
-4 13 -10 10 -14z m132 -12 c-3 -8 -6 -5 -6 6 -1 11 2 17 5 13 3 -3 4 -12 1
-19z m-841 -34 c1 -9 -1 -13 -4 -9 -4 4 -7 10 -7 13 0 4 -4 14 -9 22 -7 12 -6
13 4 3 8 -7 15 -20 16 -29z m611 30 c-3 -3 -12 -4 -19 -1 -8 3 -5 6 6 6 11 1
17 -2 13 -5z m198 -4 c-3 -5 -11 -10 -16 -10 -6 0 -7 5 -4 10 3 6 11 10 16 10
6 0 7 -4 4 -10z m-596 -16 c-7 -8 -6 -14 1 -19 5 -3 10 -11 10 -17 0 -6 -9 1
-20 15 -25 31 -25 36 -1 34 14 -1 17 -5 10 -13z m535 -10 c3 -8 2 -12 -4 -9
-6 3 -10 10 -10 16 0 14 7 11 14 -7z m56 -13 c0 -21 -23 -45 -33 -34 -4 3 -7
13 -7 21 0 12 3 12 15 2 12 -10 14 -8 10 9 -2 12 0 21 6 21 5 0 9 -8 9 -19z
m70 7 c0 6 8 12 17 12 9 0 13 -3 10 -7 -4 -3 -2 -12 3 -18 13 -16 -11 -27 -30
-15 -8 5 -19 3 -27 -5 -15 -16 -18 -29 -3 -20 6 3 7 -1 4 -9 -7 -19 -21 -21
-26 -4 -3 7 -7 5 -11 -6 -4 -9 -3 -15 2 -11 5 3 12 2 15 -3 2 -4 -4 -13 -15
-20 -13 -9 -19 -9 -19 -1 0 6 -9 9 -20 6 -11 -3 -20 -1 -20 4 0 5 9 9 21 9 11
0 18 4 15 9 -3 5 10 23 29 40 19 17 35 36 35 43 0 9 3 8 10 -2 6 -10 10 -11
10 -2z m-845 -8 c3 -5 1 -10 -4 -10 -6 0 -11 5 -11 10 0 6 2 10 4 10 3 0 8 -4
11 -10z m5135 -5 c0 -8 -4 -15 -9 -15 -13 0 -22 16 -14 24 11 11 23 6 23 -9z
m-4975 -15 c0 -5 11 -18 24 -29 13 -12 20 -21 15 -21 -6 0 -15 5 -22 12 -21
21 -13 -5 9 -28 17 -18 18 -22 5 -27 -11 -4 -13 -1 -9 10 5 12 2 15 -10 10
-11 -4 -17 -1 -17 8 0 8 -4 15 -9 15 -15 0 -22 33 -9 42 10 6 10 8 -2 8 -13 0
-13 1 0 10 15 9 25 5 25 -10z m-200 0 c-3 -5 -11 -10 -16 -10 -6 0 -7 5 -4 10
3 6 11 10 16 10 6 0 7 -4 4 -10z m1955 -21 c0 -6 -4 -7 -10 -4 -5 3 -10 11
-10 16 0 6 5 7 10 4 6 -3 10 -11 10 -16z m-1940 -39 c-12 -36 -11 -42 5 -60
30 -33 9 -23 -29 15 -37 36 -43 45 -27 45 5 0 11 -8 14 -17 2 -12 9 -4 22 25
22 53 33 47 15 -8z m1210 42 c0 -4 -4 -12 -10 -18 -6 -6 1 -47 21 -118 16 -60
28 -110 26 -112 -6 -6 -58 169 -64 216 -5 33 -3 40 11 40 9 0 16 -4 16 -8z
m-288 -23 c25 24 38 27 38 7 0 -22 -40 -67 -87 -96 -23 -15 -40 -30 -37 -33 3
-3 1 -8 -5 -12 -6 -3 -11 -2 -11 3 0 13 -38 3 -68 -16 -12 -8 -25 -12 -29 -8
-3 3 -1 6 5 6 7 0 12 5 12 11 0 6 -6 9 -13 6 -19 -7 -15 25 5 46 10 9 18 13
18 7 0 -12 63 14 68 28 2 6 10 8 19 5 11 -4 14 -2 9 5 -4 8 -2 10 8 6 10 -4
16 4 21 28 7 31 8 32 16 10 l9 -23 22 20z m-942 1 c0 -5 -4 -10 -9 -10 -6 0
-13 5 -16 10 -3 6 1 10 9 10 9 0 16 -4 16 -10z m57 -10 c-1 -11 -5 -20 -9 -20
-4 0 -7 -5 -5 -11 1 -6 -5 -14 -13 -16 -12 -4 -12 -3 -2 5 8 5 13 13 13 18 -1
12 9 44 14 44 2 0 3 -9 2 -20z m1949 9 c3 -6 1 -16 -6 -22 -10 -9 -11 -9 -5 2
4 8 2 17 -6 22 -9 6 -10 9 -2 9 6 0 15 -5 19 -11z m-1545 -21 c0 -7 2 -22 4
-33 4 -23 12 -102 21 -190 8 -86 13 -105 26 -102 7 1 14 -8 16 -20 2 -13 -1
-23 -7 -23 -6 0 -11 -12 -12 -27 -1 -50 -36 130 -43 222 -8 110 -15 165 -22
176 -3 5 0 9 5 9 6 0 11 -6 12 -12z m-3310 -8 c37 -20 10 -68 -31 -55 -32 10
-26 56 8 64 2 1 12 -4 23 -9z m3563 -22 c-4 -7 -9 -6 -15 3 -7 11 -9 10 -9 -3
0 -20 -15 -24 -25 -8 -3 6 -1 10 4 10 6 0 11 7 11 15 0 13 4 14 20 5 11 -6 18
-16 14 -22z m-2853 12 c37 -20 10 -68 -31 -55 -32 10 -26 56 8 64 2 1 12 -4
23 -9z m2894 -10 c-3 -5 -10 -10 -16 -10 -5 0 -9 5 -9 10 0 6 7 10 16 10 8 0
12 -4 9 -10z m3833 -8 c2 -7 -3 -12 -12 -12 -9 0 -16 7 -16 16 0 17 22 14 28
-4z m-4408 -21 c0 -11 5 -23 10 -26 15 -9 12 -27 -2 -20 -7 4 -5 0 5 -8 17
-14 14 -47 -5 -47 -5 0 -6 5 -3 10 3 6 1 10 -5 10 -6 0 -8 5 -5 10 3 6 -1 10
-9 10 -19 0 -20 13 -6 41 9 15 7 19 -7 19 -15 0 -16 2 -3 10 22 14 30 12 30
-9z m263 -111 l5 -95 -13 75 c-16 85 -19 168 -6 135 5 -11 11 -63 14 -115z
m-293 91 c0 -6 -4 -12 -8 -15 -5 -3 -9 1 -9 9 0 8 4 15 9 15 4 0 8 -4 8 -9z
m760 -6 c0 -8 -5 -14 -11 -12 -20 4 -20 -18 1 -30 16 -10 18 -10 14 1 -3 7 2
16 10 19 10 4 13 13 9 24 -7 17 -6 17 11 0 18 -17 18 -18 0 -32 -11 -8 -16
-15 -11 -15 9 0 46 20 69 38 15 12 17 7 20 -53 2 -51 -1 -70 -12 -80 -30 -27
-106 -46 -202 -50 -79 -4 -99 -2 -112 11 -15 14 -17 13 -26 -10 -11 -30 -25
-35 -17 -7 3 14 -2 21 -20 26 -35 8 -24 15 33 21 39 4 216 65 233 80 2 2 -3
12 -12 22 -21 23 -21 32 1 48 22 17 22 17 22 -1z m-334 -3 c-2 -4 27 -6 65 -4
64 4 69 3 69 -16 0 -16 -10 -24 -37 -31 -21 -6 -43 -11 -49 -11 -15 0 -66 55
-57 63 9 9 15 9 9 -1z m-1752 -29 c-3 -16 -23 -80 -45 -145 -21 -64 -48 -158
-60 -209 -13 -51 -25 -87 -27 -80 -2 7 3 43 13 80 25 97 115 381 121 381 2 0
2 -12 -2 -27z m3766 6 c0 -5 -7 -9 -15 -9 -15 0 -20 12 -9 23 8 8 24 -1 24
-14z m-2494 -34 c-2 -7 4 -23 15 -36 10 -12 19 -27 19 -32 0 -6 -8 0 -19 11
-10 12 -22 18 -26 14 -5 -4 -5 -2 -2 5 4 6 1 14 -5 16 -10 4 -10 8 1 15 8 6
10 15 6 22 -6 9 -4 11 4 6 7 -5 10 -14 7 -21z m794 0 c0 -2 -7 -5 -15 -9 -9
-3 -15 0 -15 9 0 9 6 12 15 9 8 -4 15 -7 15 -9z m-100 -2 c0 -5 -4 -14 -9 -22
-8 -12 -12 -12 -25 2 -15 14 -14 16 2 20 28 7 32 7 32 0z m60 -3 c0 -5 -2 -10
-4 -10 -3 0 -8 5 -11 10 -3 6 -1 10 4 10 6 0 11 -4 11 -10z m-20 -19 c0 -4 -7
-8 -15 -8 -16 0 -20 9 -9 20 8 8 24 -1 24 -12z m-686 -7 c3 -8 2 -12 -4 -9 -6
3 -10 10 -10 16 0 14 7 11 14 -7z m593 -16 c-3 -8 -6 -5 -6 6 -1 11 2 17 5 13
3 -3 4 -12 1 -19z m3753 2 c0 -5 -4 -10 -10 -10 -5 0 -10 5 -10 10 0 6 5 10
10 10 6 0 10 -4 10 -10z m-3832 -12 c-3 -7 -10 -13 -15 -13 -6 0 -14 -3 -18
-6 -8 -9 -45 1 -45 11 0 5 10 11 23 13 44 8 59 7 55 -5z m3612 -22 c0 -2 -7
-9 -15 -16 -12 -10 -15 -10 -15 4 0 9 7 16 15 16 8 0 15 -2 15 -4z m-2863 -38
c-3 -7 -5 -2 -5 12 0 14 2 19 5 13 2 -7 2 -19 0 -25z m-407 2 c0 -10 -5 -12
-32 -14 -7 -1 -16 -5 -20 -11 -4 -5 -10 -6 -15 -2 -10 10 18 28 35 22 6 -2 12
0 12 5 0 6 5 10 10 10 6 0 10 -4 10 -10z m315 0 c3 -5 1 -10 -4 -10 -6 0 -11
5 -11 10 0 6 2 10 4 10 3 0 8 -4 11 -10z m-945 -10 c0 -5 -7 -10 -16 -10 -8 0
-12 5 -9 10 3 6 10 10 16 10 5 0 9 -4 9 -10z m1130 -6 c0 -10 -36 -44 -47 -44
-16 0 -26 18 -19 35 4 11 66 20 66 9z m1299 -10 c187 -7 222 -12 229 -33 4
-11 -32 -13 -199 -9 -159 4 -213 2 -244 -9 -52 -18 -69 -12 -53 21 11 26 52
47 78 41 8 -2 93 -7 189 -11z m-2095 -15 c-6 -11 -24 -2 -24 11 0 5 7 7 15 4
8 -4 12 -10 9 -15z m216 13 c0 -4 -11 -9 -26 -10 -14 -1 -23 2 -20 6 6 10 46
13 46 4z m414 -72 c5 -35 4 -42 -5 -33 -6 6 -14 36 -16 65 -4 61 10 40 21 -32z
m-4439 56 c11 -8 16 -19 12 -30 -9 -23 -34 -31 -52 -16 -18 15 -20 46 -2 53
19 8 22 8 42 -7z m3890 4 c3 -5 2 -10 -4 -10 -5 0 -13 5 -16 10 -3 6 -2 10 4
10 5 0 13 -4 16 -10z m203 -5 c1 -8 3 -22 4 -30 1 -8 4 -15 7 -15 3 0 7 -11 7
-25 2 -21 -1 -23 -16 -15 -10 5 -21 17 -24 26 -4 9 -9 14 -13 11 -3 -4 -1 -12
5 -20 7 -8 7 -18 2 -27 -8 -12 -10 -10 -10 7 0 13 -8 24 -20 28 -16 5 -17 9
-7 20 6 7 16 11 21 8 4 -3 5 5 1 17 -6 19 -4 22 9 17 9 -4 16 -2 16 3 0 16 17
11 18 -5z m-3383 -9 c11 -8 16 -19 12 -30 -9 -23 -34 -31 -52 -16 -18 15 -20
46 -2 53 19 8 22 8 42 -7z m706 -6 c37 -20 10 -68 -31 -55 -32 10 -26 56 8 64
2 1 12 -4 23 -9z m2165 -56 c3 -33 3 -56 0 -53 -3 3 -8 32 -11 64 -3 33 -3 57
0 53 3 -3 8 -32 11 -64z m434 46 c0 -5 -2 -10 -4 -10 -3 0 -8 5 -11 10 -3 6
-1 10 4 10 6 0 11 -4 11 -10z m-810 -67 c29 -27 46 -52 48 -70 2 -21 -1 -24
-10 -15 -17 17 -29 15 -22 -3 4 -10 0 -15 -12 -15 -16 0 -17 2 -4 10 13 9 13
10 0 10 -12 0 -12 2 -2 9 10 6 6 13 -15 26 -44 29 -53 41 -53 75 0 37 6 35 70
-27z m1406 14 c2 -21 -2 -27 -17 -27 -10 0 -19 6 -19 13 0 6 -3 22 -6 35 -6
20 -4 21 16 14 15 -5 24 -18 26 -35z m2534 33 c0 -5 -7 -10 -15 -10 -8 0 -15
5 -15 10 0 6 7 10 15 10 8 0 15 -4 15 -10z m-2200 -40 c0 -5 -5 -10 -11 -10
-5 0 -7 5 -4 10 3 6 8 10 11 10 2 0 4 -4 4 -10z m45 -20 c3 -5 -1 -10 -10 -10
-9 0 -13 5 -10 10 3 6 8 10 10 10 2 0 7 -4 10 -10z m-1515 -4 c0 -11 -19 -15
-25 -6 -3 5 1 10 9 10 9 0 16 -2 16 -4z m2655 -6 c3 -5 1 -10 -4 -10 -6 0 -11
5 -11 10 0 6 2 10 4 10 3 0 8 -4 11 -10z m1830 0 c3 -5 1 -10 -4 -10 -6 0 -11
5 -11 10 0 6 2 10 4 10 3 0 8 -4 11 -10z m-4815 -27 c0 -15 2 -16 10 -3 7 11
10 11 10 2 0 -7 5 -10 10 -7 17 10 11 -7 -6 -20 -15 -10 -15 -13 1 -28 12 -13
13 -17 3 -17 -21 0 -48 37 -48 65 0 14 5 25 10 25 6 0 10 -8 10 -17z m4658 -1
c2 -7 -3 -12 -12 -12 -9 0 -16 7 -16 16 0 17 22 14 28 -4z m-4022 -20 c-3 12
-1 15 10 11 17 -6 19 -33 2 -32 -26 1 -43 14 -45 34 -1 17 1 17 19 -5 12 -15
18 -18 14 -8z m290 1 c-10 -10 -19 5 -10 18 6 11 8 11 12 0 2 -7 1 -15 -2 -18z
m1062 7 c27 -26 39 -67 23 -83 -19 -19 -65 38 -51 63 13 24 12 40 -1 18 -5
-10 -14 -18 -20 -18 -5 0 -4 9 3 20 16 25 19 25 46 0z m-1523 -95 l4 -50 -14
60 c-16 68 -19 119 -4 70 5 -16 11 -52 14 -80z m1345 85 c0 -5 -4 -10 -10 -10
-5 0 -10 5 -10 10 0 6 5 10 10 10 6 0 10 -4 10 -10z m-275 -18 c3 -7 0 -10 -6
-6 -6 3 -22 0 -36 -7 -20 -11 -26 -11 -33 1 -5 8 -6 18 -4 22 9 13 73 5 79
-10z m-1409 -63 c-8 -35 -14 -54 -15 -41 -1 26 20 115 25 109 2 -2 -2 -33 -10
-68z m375 59 c1 -7 1 -19 0 -27 -2 -7 1 -20 5 -30 10 -22 11 -26 29 -101 9
-36 20 -78 25 -95 5 -16 11 -41 13 -55 3 -14 14 -54 26 -89 24 -73 27 -107 5
-46 -32 86 -124 416 -124 444 0 15 20 14 21 -1z m456 -10 c-3 -8 -6 -5 -6 6
-1 11 2 17 5 13 3 -3 4 -12 1 -19z m323 7 c0 -8 -2 -15 -4 -15 -2 0 -6 7 -10
15 -3 8 -1 15 4 15 6 0 10 -7 10 -15z m110 -25 c-12 -23 -50 -15 -50 10 0 22
19 30 43 18 13 -7 15 -13 7 -28z m240 30 c0 -5 -4 -10 -10 -10 -5 0 -10 5 -10
10 0 6 5 10 10 10 6 0 10 -4 10 -10z m1633 -5 c1 -5 -13 -11 -30 -13 -31 -3
-42 6 -26 22 10 10 53 3 56 -9z m-2346 -27 c-3 -7 -5 -2 -5 12 0 14 2 19 5 13
2 -7 2 -19 0 -25z m213 22 c0 -5 -4 -10 -10 -10 -5 0 -10 5 -10 10 0 6 5 10
10 10 6 0 10 -4 10 -10z m710 -15 c-7 -8 -16 -12 -21 -9 -13 8 -1 24 18 24 13
0 13 -3 3 -15z m310 -5 c0 -11 -4 -20 -10 -20 -5 0 -10 9 -10 20 0 11 5 20 10
20 6 0 10 -9 10 -20z m-2069 -3 c-1 -12 -15 -9 -19 4 -3 6 1 10 8 8 6 -3 11
-8 11 -12z m-2946 -11 c11 -8 16 -19 12 -30 -9 -23 -34 -31 -52 -16 -18 15
-20 46 -2 53 19 8 22 8 42 -7z m4390 5 c-3 -5 -1 -12 5 -16 21 -13 9 -25 -25
-25 -56 0 -44 26 23 49 2 1 1 -3 -3 -8z m1523 -3 c20 -20 14 -28 -21 -28 -40
0 -51 8 -36 27 14 16 41 17 57 1z m-5203 -12 c11 -8 16 -19 12 -30 -9 -23 -34
-31 -52 -16 -18 15 -20 46 -2 53 19 8 22 8 42 -7z m2142 -8 c-3 -8 -6 -5 -6 6
-1 11 2 17 5 13 3 -3 4 -12 1 -19z m1382 -38 c0 -23 -1 -23 -9 -5 -5 11 -9 29
-9 40 -1 17 1 17 9 5 5 -8 9 -26 9 -40z m266 41 c3 -5 1 -12 -5 -16 -5 -3 -10
1 -10 9 0 18 6 21 15 7z m-28 -23 c-3 -8 -6 -5 -6 6 -1 11 2 17 5 13 3 -3 4
-12 1 -19z m-1004 -18 c3 -11 0 -18 -7 -17 -6 1 -10 -6 -10 -15 1 -14 -2 -16
-17 -7 -11 5 -19 13 -19 16 0 3 3 4 6 0 8 -7 34 17 34 32 0 18 7 13 13 -9z
m215 -13 c4 -20 -25 -34 -40 -19 -15 15 -1 44 19 40 10 -2 19 -11 21 -21z
m-668 3 c0 -5 -2 -10 -4 -10 -3 0 -8 5 -11 10 -3 6 -1 10 4 10 6 0 11 -4 11
-10z m880 0 c0 -5 -2 -10 -4 -10 -3 0 -8 5 -11 10 -3 6 -1 10 4 10 6 0 11 -4
11 -10z m-289 -27 c-12 -20 -14 -14 -5 12 4 9 9 14 11 11 3 -2 0 -13 -6 -23z
m798 13 c9 -11 7 -15 -11 -19 -27 -7 -32 -3 -25 18 8 19 21 19 36 1z m101 2
c0 -4 -7 -8 -15 -8 -8 0 -15 4 -15 8 0 5 7 9 15 9 8 0 15 -4 15 -9z m-950 -14
c0 -8 5 -12 10 -9 6 3 10 -1 10 -10 0 -10 5 -13 13 -9 6 4 9 4 5 0 -3 -4 -8
-6 -11 -4 -2 2 -12 -4 -22 -12 -16 -14 -17 -13 -12 5 4 11 2 27 -3 35 -8 12
-10 12 -10 -4 0 -16 -3 -17 -12 -8 -10 10 -10 15 2 22 22 14 30 12 30 -6z
m385 -71 c4 -49 11 -93 15 -98 5 -6 10 -33 13 -60 2 -38 4 -31 5 28 2 59 5 77
16 77 20 0 27 -138 8 -149 -16 -9 -23 -195 -11 -243 6 -21 4 -28 -7 -28 -8 0
-14 8 -15 18 0 9 -3 47 -8 84 -4 44 -3 72 3 79 8 9 7 10 -1 5 -10 -5 -13 10
-13 63 0 38 -4 92 -9 118 -13 64 -20 193 -11 193 4 0 11 -39 15 -87z m1205 82
c0 -17 -90 -105 -107 -105 -7 0 -13 -11 -13 -25 0 -21 -2 -24 -14 -13 -7 7
-11 20 -9 28 3 8 -32 -22 -77 -68 -45 -46 -80 -89 -77 -96 7 -18 -24 -17 -45
2 -10 8 -18 12 -18 8 0 -4 -8 0 -17 10 -17 17 -18 16 -23 -12 -4 -21 -12 -30
-28 -32 l-22 -3 25 37 c15 22 35 38 47 39 11 1 25 9 30 19 5 9 14 14 19 10 5
-3 8 -2 7 3 -2 4 2 10 7 11 6 2 18 9 29 14 17 9 18 7 12 -18 -6 -26 1 -21 60
39 37 37 71 67 75 67 5 0 21 12 36 26 44 42 103 75 103 59z m-150 -36 c0 -22
-13 -25 -29 -6 -8 10 -7 17 1 25 15 15 28 6 28 -19z m-1980 -9 c0 -5 -5 -10
-11 -10 -5 0 -7 5 -4 10 3 6 8 10 11 10 2 0 4 -4 4 -10z m1244 -59 c15 -71 4
-70 -13 1 -12 52 -14 74 -5 66 3 -4 11 -34 18 -67z m-374 37 c0 -13 -9 -36
-19 -52 l-19 -29 -25 39 c-29 46 -21 64 29 64 29 0 34 -4 34 -22z m-950 -68
c0 -5 -5 -10 -11 -10 -5 0 -7 5 -4 10 3 6 8 10 11 10 2 0 4 -4 4 -10z m1450 0
c0 -5 -8 -10 -17 -10 -15 0 -16 2 -3 10 19 12 20 12 20 0z m1185 -1 c10 -15 4
-18 -64 -27 -64 -9 -67 -4 -16 22 35 18 71 21 80 5z m-1505 -64 c0 -58 -2 -65
-20 -65 -18 0 -20 7 -20 65 0 58 2 65 20 65 18 0 20 -7 20 -65z m664 8 c-21
-44 -71 -96 -77 -79 -3 7 -11 6 -23 -5 -36 -31 -47 -34 -35 -10 9 16 9 21 0
19 -6 -2 -13 2 -16 9 -2 7 20 26 49 42 29 17 67 42 83 55 36 30 42 20 19 -31z
m981 47 c3 -5 -1 -10 -9 -10 -9 0 -16 5 -16 10 0 6 4 10 9 10 6 0 13 -4 16
-10z m-935 -49 c-12 -24 -32 -29 -24 -6 4 8 10 15 15 15 5 0 10 10 10 23 1 16
3 17 6 5 2 -9 -1 -26 -7 -37z m75 39 c3 -5 1 -10 -4 -10 -6 0 -11 5 -11 10 0
6 2 10 4 10 3 0 8 -4 11 -10z m125 -13 c0 -2 -10 -12 -22 -23 l-23 -19 19 23
c18 21 26 27 26 19z m-1990 -62 c6 -8 10 -19 8 -24 -1 -5 -11 2 -21 15 -19 26
-8 34 13 9z m331 -42 c0 -5 2 -17 4 -28 18 -94 31 -195 24 -195 -8 0 -25 82
-22 108 0 6 -3 12 -8 12 -12 0 -11 -37 2 -120 11 -63 14 -68 40 -74 16 -3 29
-10 29 -16 0 -9 -41 -5 -61 6 -16 9 -47 269 -36 298 6 16 26 22 28 9z m253
-30 c-2 -42 -3 -45 -12 -39 -14 8 -12 66 2 66 7 0 11 -12 10 -27z m1231 -1 c3
-7 3 -18 -1 -23 -8 -14 -44 9 -38 24 7 18 32 17 39 -1z m2095 -2 c0 -5 -2 -10
-4 -10 -3 0 -8 5 -11 10 -3 6 -1 10 4 10 6 0 11 -4 11 -10z m-3880 -30 c18
-42 9 -45 -11 -4 -9 19 -13 34 -9 34 4 0 13 -14 20 -30z m3846 -14 c-15 -24
-55 -39 -41 -16 4 6 10 8 15 5 5 -3 12 0 16 6 4 7 3 10 -2 6 -5 -3 -18 1 -29
9 -18 13 -17 14 15 8 30 -6 33 -5 26 12 -6 15 -5 16 5 7 9 -9 8 -18 -5 -37z
m-6865 24 c37 -20 10 -68 -31 -55 -32 10 -26 56 8 64 2 1 12 -4 23 -9z m714
-14 c11 -8 16 -19 12 -30 -9 -23 -34 -31 -52 -16 -18 15 -20 46 -2 53 19 8 22
8 42 -7z m2722 -18 c-3 -8 -6 -5 -6 6 -1 11 2 17 5 13 3 -3 4 -12 1 -19z
m1255 8 c4 -6 46 -16 95 -22 l88 -13 -124 6 c-122 5 -177 15 -167 31 6 11 100
9 108 -2z m-1179 -58 c9 -21 14 -38 11 -38 -5 0 -34 64 -34 76 0 12 7 0 23
-38z m-1276 26 c-3 -3 -12 -4 -19 -1 -8 3 -5 6 6 6 11 1 17 -2 13 -5z m4137 0
c27 -10 18 -24 -15 -24 -27 0 -30 2 -19 15 14 17 13 17 34 9z m-4049 -25 c7
-7 0 -8 -20 -3 -47 11 -66 25 -25 18 19 -3 40 -10 45 -15z m485 -19 c-8 -5
-31 -9 -50 -9 l-35 2 35 7 c19 4 42 8 50 9 13 1 13 0 0 -9z m120 -6 c32 -7 12
-19 -45 -27 -50 -8 -75 4 -56 27 12 15 28 15 101 0z m-262 -7 c32 2 33 1 17
-17 -11 -13 -13 -19 -4 -22 7 -2 -16 -4 -50 -4 -33 0 -61 4 -61 8 0 4 -18 6
-40 3 -24 -3 -40 -1 -40 5 0 5 10 11 23 11 52 3 69 7 80 18 6 6 18 8 27 4 8
-4 30 -6 48 -6z m3362 -7 c0 -5 -4 -10 -9 -10 -6 0 -13 5 -16 10 -3 6 1 10 9
10 9 0 16 -4 16 -10z m-2945 -19 c3 -5 1 -12 -5 -16 -5 -3 -10 1 -10 9 0 18 6
21 15 7z m49 -27 c3 -8 2 -12 -4 -9 -6 3 -10 10 -10 16 0 14 7 11 14 -7z
m3899 1 c-3 -13 -53 -20 -53 -7 0 15 13 23 35 20 11 -2 19 -7 18 -13z m-3816
-55 c7 -8 13 -10 13 -5 0 6 3 6 8 0 4 -6 31 -26 60 -44 29 -19 51 -35 50 -36
-6 -6 -58 8 -58 16 0 4 -22 20 -49 34 -27 15 -54 38 -60 53 -11 24 -11 24 6
11 10 -8 23 -21 30 -29z m143 15 c0 -14 -2 -25 -4 -25 -2 0 -6 11 -8 25 -3 14
-1 25 3 25 5 0 9 -11 9 -25z m200 -19 c0 -12 -5 -7 -19 24 -11 24 -11 24 3 6
9 -11 16 -24 16 -30z m-560 -17 l45 -20 -43 6 c-106 13 -193 16 -260 8 -40 -5
-69 -6 -65 -2 18 17 84 27 178 28 78 0 110 -4 145 -20z m480 -23 c0 -20 -12
-27 -26 -15 -7 6 -10 17 -8 24 7 16 34 8 34 -9z m98 -21 c-3 -3 -9 2 -12 12
-6 14 -5 15 5 6 7 -7 10 -15 7 -18z m-2124 -12 c-4 -16 -20 -57 -36 -93 -38
-86 -30 -36 17 108 9 25 25 12 19 -15z m1581 3 c80 -5 85 -6 85 -15 0 -5 -19
-12 -42 -15 -24 -3 -55 -8 -71 -10 -15 -2 -50 5 -77 15 -28 10 -64 19 -80 19
-17 0 -30 5 -30 11 0 8 25 9 83 4 45 -3 105 -7 132 -9z m3150 -4 c-3 -3 -11 0
-18 7 -9 10 -8 11 6 5 10 -3 15 -9 12 -12z m-2565 -47 c7 -8 8 -15 2 -15 -5 0
-15 7 -22 15 -7 8 -8 15 -2 15 5 0 15 -7 22 -15z m-537 -32 c-7 -2 -19 -2 -25
0 -7 3 -2 5 12 5 14 0 19 -2 13 -5z m102 -24 c-46 -10 -80 -10 -69 0 12 12 53
18 79 12 16 -4 15 -6 -10 -12z m-302 -24 c8 -19 -13 -31 -23 -14 -9 14 -4 29
10 29 4 0 10 -7 13 -15z m-1508 -94 c-22 -44 -25 -38 -6 15 9 25 17 38 19 30
2 -8 -4 -28 -13 -45z m6435 35 c0 -3 -4 -8 -10 -11 -5 -3 -10 -1 -10 4 0 6 5
11 10 11 6 0 10 -2 10 -4z m-6457 -101 c-3 -9 -8 -14 -10 -11 -3 3 -2 9 2 15
9 16 15 13 8 -4z m1627 -104 c0 -10 -13 -15 -67 -26 -40 -8 -43 7 -5 22 35 14
72 16 72 4z m50 -11 c0 -13 -11 -13 -30 0 -12 8 -11 10 8 10 12 0 22 -4 22
-10z m-1722 -61 c-28 -38 -31 -37 -11 6 9 19 20 32 25 29 4 -3 -2 -18 -14 -35z
m1422 26 c0 -8 4 -15 8 -15 5 0 1 -22 -7 -49 l-16 -49 -22 41 c-34 64 -29 84
20 86 9 1 17 -6 17 -14z m555 -34 c17 -7 16 -9 -9 -15 -31 -8 -42 -3 -31 13 7
12 12 13 40 2z m-1777 -23 c18 -18 14 -38 -7 -38 -23 0 -35 15 -27 35 7 18 18
19 34 3z m2519 -30 c-3 -7 -5 -2 -5 12 0 14 2 19 5 13 2 -7 2 -19 0 -25z
m-2472 -18 c3 -6 -1 -7 -9 -4 -18 7 -21 14 -7 14 6 0 13 -4 16 -10z m1783 -13
c2 -12 -3 -17 -17 -17 -15 0 -21 6 -21 21 0 25 33 22 38 -4z m659 -9 c-3 -7
-5 -2 -5 12 0 14 2 19 5 13 2 -7 2 -19 0 -25z m-787 -3 c0 -8 -7 -15 -15 -15
-8 0 -15 7 -15 15 0 8 7 15 15 15 8 0 15 -7 15 -15z m827 -17 c-3 -7 -5 -2 -5
12 0 14 2 19 5 13 2 -7 2 -19 0 -25z m-30 -40 c-3 -8 -6 -5 -6 6 -1 11 2 17 5
13 3 -3 4 -12 1 -19z m-144 -31 c4 3 7 -1 7 -10 0 -21 -7 -21 -26 -3 -18 18
-19 32 -1 17 8 -6 17 -8 20 -4z m3325 -61 c9 3 6 -1 -8 -9 -14 -9 -28 -13 -32
-11 -5 3 -8 0 -8 -5 0 -6 -4 -11 -10 -11 -5 0 -10 9 -10 21 0 11 4 18 8 15 4
-2 14 -1 22 4 9 6 16 6 18 0 2 -5 11 -7 20 -4z m-3908 -15 c0 -22 -29 -36 -43
-22 -15 15 0 41 23 41 13 0 20 -7 20 -19z m3725 0 c3 -6 -3 -9 -14 -8 -11 0
-17 5 -15 9 7 11 22 10 29 -1z m100 0 c3 -5 -4 -16 -15 -24 -11 -7 -17 -17
-13 -20 3 -4 1 -7 -5 -7 -6 0 -14 5 -17 10 -3 6 -1 10 5 10 7 0 9 7 6 16 -6
15 -4 15 11 3 15 -12 16 -12 10 4 -7 18 7 24 18 8z m-55 -11 c0 -5 -10 -14
-21 -21 -17 -9 -20 -8 -16 3 2 7 10 12 16 11 6 -2 11 2 11 7 0 6 2 10 5 10 3
0 5 -4 5 -10z m-70 -15 c0 -12 -19 -12 -23 0 -4 9 -1 12 9 8 7 -3 14 -7 14 -8z
m-36 -20 c3 -8 1 -15 -4 -15 -6 0 -10 7 -10 15 0 8 2 15 4 15 2 0 6 -7 10 -15z
m-5224 -61 c0 -9 -7 -14 -17 -12 -25 5 -28 28 -4 28 12 0 21 -6 21 -16z m1610
-1 c0 -5 -17 -9 -37 -10 -26 -1 -33 1 -23 7 18 12 60 13 60 3z m114 -14 c-28
-11 -70 -11 -58 0 11 11 55 19 68 12 5 -2 1 -8 -10 -12z m-297 -34 c-9 -8 -18
-20 -20 -27 -4 -10 -8 -9 -16 2 -19 27 -12 40 20 40 27 0 29 -2 16 -15z m4688
-5 c-3 -5 -14 -10 -23 -9 -14 0 -13 2 3 9 27 11 27 11 20 0z m-802 -44 c-22
-31 -29 -32 -36 -6 -4 15 0 20 14 20 11 0 23 8 26 17 4 10 8 12 11 5 2 -6 -5
-23 -15 -36z m-4270 27 c-7 -2 -21 -2 -30 0 -10 3 -4 5 12 5 17 0 24 -2 18 -5z
m633 -3 c12 0 12 -3 2 -14 -10 -10 -17 -11 -30 -2 -22 13 -24 30 -2 22 9 -3
22 -6 30 -6z m4359 -9 c-8 -14 -25 -14 -25 0 0 5 5 7 10 4 6 -3 10 -1 10 6 0
7 3 10 6 6 3 -3 3 -10 -1 -16z m-5045 -1 c0 -5 -8 -10 -17 -10 -15 0 -16 2 -3
10 19 12 20 12 20 0z m-128 -25 c46 8 46 -9 0 -18 -30 -6 -52 -40 -52 -82 0
-40 -15 -29 -43 32 -18 40 -23 61 -16 70 15 17 53 21 62 5 6 -10 20 -12 49 -7z
m5137 11 c9 -11 7 -13 -11 -12 -13 1 -29 -4 -36 -11 -7 -7 -22 -13 -33 -13
-10 0 -19 -4 -19 -10 0 -5 -4 -10 -10 -10 -5 0 -10 9 -10 21 0 11 4 18 9 15 5
-3 14 1 21 10 10 11 15 12 21 3 5 -9 13 -7 30 5 28 19 24 19 38 2z m-134 -36
c3 -5 1 -10 -4 -10 -6 0 -11 5 -11 10 0 6 2 10 4 10 3 0 8 -4 11 -10z m222
-16 c-3 -3 -12 -4 -19 -1 -8 3 -5 6 6 6 11 1 17 -2 13 -5z m-804 -11 c-7 -2
-19 -2 -25 0 -7 3 -2 5 12 5 14 0 19 -2 13 -5z m512 -3 c4 -7 13 -6 26 1 12 6
23 8 27 5 3 -3 0 -6 -7 -6 -7 0 -9 -5 -6 -10 3 -6 -2 -9 -12 -7 -23 4 -62 26
-46 27 6 0 15 -5 18 -10z m445 2 c0 -25 -84 -82 -120 -82 -25 0 -5 28 43 57
52 32 77 40 77 25z m-615 -80 c-3 -3 -11 0 -18 7 -9 10 -8 11 6 5 10 -3 15 -9
12 -12z m690 -2 c3 -5 -3 -10 -14 -10 -12 0 -21 5 -21 10 0 6 6 10 14 10 8 0
18 -4 21 -10z m-704 -17 c13 -17 13 -17 -6 -3 -11 8 -22 16 -24 17 -2 2 0 3 6
3 6 0 17 -8 24 -17z m-4051 -69 c0 -10 -6 -11 -26 -4 -16 6 -31 7 -38 2 -6 -5
-21 -8 -33 -7 -13 1 -23 -2 -23 -7 0 -4 -12 -8 -28 -8 -15 0 -39 -8 -52 -17
-14 -10 -38 -25 -55 -34 -16 -9 -30 -23 -31 -30 0 -8 -2 -29 -2 -46 -2 -36
-21 -45 -29 -13 -3 11 -11 20 -19 20 -8 0 -11 6 -7 17 4 9 2 14 -3 10 -10 -6
-12 3 -17 63 -2 31 1 35 31 44 26 7 36 6 42 -4 8 -14 18 -12 164 34 46 14 126
1 126 -20z m4218 31 c-11 -11 -68 -23 -68 -15 0 5 12 11 28 13 15 2 31 5 36 6
5 0 7 -1 4 -4z m-170 -70 c-3 -3 -9 2 -12 12 -6 14 -5 15 5 6 7 -7 10 -15 7
-18z m42 13 c0 -4 -7 -8 -15 -8 -8 0 -15 4 -15 8 0 5 7 9 15 9 8 0 15 -4 15
-9z m-3815 -28 c18 -7 18 -8 -8 -15 -30 -8 -43 -2 -32 14 7 13 12 13 40 1z
m-3099 -34 c-11 -42 -46 -119 -53 -113 -5 5 7 49 32 125 8 23 27 13 21 -12z
m2423 11 c-2 -1 -13 -9 -24 -17 -19 -14 -19 -14 -6 3 7 9 18 17 24 17 6 0 8
-1 6 -3z m4711 -27 c0 -10 -57 -46 -80 -52 -34 -7 -22 17 20 42 43 26 60 29
60 10z m-6426 -24 c-9 -15 -19 -25 -21 -22 -5 5 30 56 35 51 2 -2 -4 -15 -14
-29z m2434 -9 c2 -12 -3 -17 -17 -17 -15 0 -21 6 -21 21 0 25 33 22 38 -4z
m-128 -13 c0 -10 -7 -14 -22 -12 -32 5 -35 28 -4 28 17 0 26 -5 26 -16z
m-2102 -6 c18 -18 14 -38 -7 -38 -23 0 -35 15 -27 35 7 18 18 19 34 3z m1507
-7 c3 -5 1 -12 -5 -16 -5 -3 -10 1 -10 9 0 18 6 21 15 7z m-1465 -42 c0 -6 -4
-7 -10 -4 -5 3 -10 11 -10 16 0 6 5 7 10 4 6 -3 10 -11 10 -16z m-1013 -31
c-3 -8 -6 -5 -6 6 -1 11 2 17 5 13 3 -3 4 -12 1 -19z m-17 -62 c-6 -20 -15
-38 -19 -41 -5 -2 -1 15 8 40 18 52 28 53 11 1z m3160 -15 c0 -22 -29 -36 -43
-22 -15 15 0 41 23 41 13 0 20 -7 20 -19z m3568 -24 c2 -9 -4 -20 -13 -23 -20
-8 -50 19 -40 36 10 17 49 8 53 -13z m-3522 -85 c-2 -4 -19 -9 -36 -10 -17 -1
-29 1 -26 6 2 4 19 9 36 10 17 1 29 -1 26 -6z m118 -13 c-28 -11 -70 -11 -58
0 11 11 55 19 68 12 5 -2 1 -8 -10 -12z m-307 -34 c-9 -8 -17 -20 -19 -27 -6
-17 -28 0 -28 23 0 15 7 19 31 19 27 0 29 -2 16 -15z m-361 -13 c-3 -6 -30
-15 -58 -22 -29 -7 -83 -24 -120 -38 -71 -29 -88 -48 -88 -104 0 -25 -3 -28
-14 -19 -19 16 -58 110 -53 126 8 20 58 28 74 12 13 -13 21 -12 61 4 26 9 74
23 107 29 33 7 67 15 75 20 17 9 25 5 16 -8z m-3441 -24 c-3 -13 -10 -32 -15
-43 -5 -11 -14 -33 -20 -49 -6 -16 -13 -26 -17 -23 -3 3 2 24 11 47 9 22 16
49 16 59 0 16 9 25 28 30 2 1 1 -9 -3 -21z m1990 13 c3 -5 1 -13 -5 -16 -15
-9 -43 3 -35 15 8 13 32 13 40 1z m2053 -3 c15 -15 15 -28 0 -28 -6 0 -8 3 -5
7 4 3 -1 12 -11 19 -9 7 -12 14 -6 14 5 0 15 -5 22 -12z m3622 -37 c0 -48 -73
-56 -78 -8 -3 21 2 29 20 36 29 11 58 -3 58 -28z m-6954 -23 c-9 -12 -16 -19
-16 -15 0 11 24 47 28 42 2 -2 -3 -14 -12 -27z m202 -30 c18 -18 14 -38 -7
-38 -23 0 -35 15 -27 35 7 18 18 19 34 3z m6732 -18 c-7 -4 -9 -13 -5 -20 5
-8 0 -7 -14 2 -28 17 -26 26 5 26 16 0 21 -3 14 -8z m-106 -10 c-5 -5 -25 -12
-43 -14 -37 -4 -29 10 9 17 43 8 44 7 34 -3z m266 -24 c0 -20 -17 -29 -26 -15
-5 8 -2 10 7 5 8 -4 5 0 -5 8 -19 16 -19 16 2 16 12 0 22 -6 22 -14z m-7863
-18 c-3 -8 -6 -5 -6 6 -1 11 2 17 5 13 3 -3 4 -12 1 -19z m7498 12 c3 -5 1
-10 -4 -10 -6 0 -11 5 -11 10 0 6 2 10 4 10 3 0 8 -4 11 -10z m313 -2 c19 -19
14 -30 -10 -22 -19 6 -21 5 -11 -8 16 -19 -16 -50 -40 -37 -25 14 -9 46 26 53
25 5 29 9 17 16 -8 5 -10 10 -4 10 5 0 15 -5 22 -12z m-335 -18 c10 -12 9 -12
-5 -2 -12 10 -17 10 -20 1 -2 -7 -8 -6 -17 5 -12 14 -11 16 8 13 12 -2 27 -10
34 -17z m257 8 c0 -4 -6 -8 -14 -8 -8 0 -17 4 -20 8 -2 4 4 8 15 8 10 0 19 -4
19 -8z m765 2 c3 -5 1 -10 -4 -10 -6 0 -11 5 -11 10 0 6 2 10 4 10 3 0 8 -4
11 -10z m-975 -10 c0 -5 -5 -10 -11 -10 -5 0 -7 5 -4 10 3 6 8 10 11 10 2 0 4
-4 4 -10z m946 -2 c4 -6 3 -8 -4 -4 -6 3 -17 -2 -24 -13 -10 -14 -18 -17 -28
-10 -12 6 -12 9 -2 9 7 0 20 7 28 15 18 18 21 18 30 3z m-8481 -35 c-3 -16
-10 -32 -15 -37 -5 -5 -4 7 2 27 13 43 23 50 13 10z m7362 12 c0 -8 -4 -15 -9
-15 -10 0 -11 14 -1 23 9 10 10 9 10 -8z m82 11 c-12 -10 -60 -16 -54 -6 3 5
18 10 32 10 15 0 24 -2 22 -4z m154 -33 c-7 -2 -19 -2 -25 0 -7 3 -2 5 12 5
14 0 19 -2 13 -5z m-3678 -23 c-3 -5 -17 -10 -30 -10 -13 0 -27 -4 -30 -10 -7
-12 -35 -13 -35 -2 0 10 48 30 78 31 13 1 20 -3 17 -9z m55 -10 c0 -5 -4 -10
-9 -10 -6 0 -13 5 -16 10 -3 6 1 10 9 10 9 0 16 -4 16 -10z m4102 -47 c-6 -3
-9 -9 -6 -15 3 -5 -3 -12 -15 -15 -11 -3 -19 -8 -17 -12 3 -4 -4 -7 -15 -7
-10 0 -19 4 -19 8 0 4 6 8 13 8 8 0 24 11 37 25 13 14 26 22 29 19 3 -4 0 -9
-7 -11z m-3828 -28 c-21 -15 -44 -9 -44 10 0 18 21 24 43 13 18 -9 18 -10 1
-23z m3603 10 c0 -8 -4 -12 -9 -9 -5 3 -6 10 -3 15 9 13 12 11 12 -6z m-4293
-40 c-10 -8 -23 -15 -28 -15 -6 0 -1 7 10 15 10 8 23 15 28 15 6 0 1 -7 -10
-15z"/>
<path d="M3625 5510 c-3 -5 -1 -10 4 -10 6 0 11 5 11 10 0 6 -2 10 -4 10 -3 0
-8 -4 -11 -10z"/>
<path d="M3670 5493 c0 -5 5 -15 10 -23 7 -12 9 -10 7 8 -1 19 -17 33 -17 15z"/>
<path d="M3130 4511 c-14 -27 -13 -31 6 -24 8 3 13 11 10 19 -3 7 0 15 7 18 9
3 9 5 0 5 -7 1 -17 -8 -23 -18z"/>
<path d="M4675 4720 c3 -5 8 -10 11 -10 2 0 4 5 4 10 0 6 -5 10 -11 10 -5 0
-7 -4 -4 -10z"/>
<path d="M4816 4705 c4 -8 8 -15 10 -15 2 0 4 7 4 15 0 8 -4 15 -10 15 -5 0
-7 -7 -4 -15z"/>
<path d="M5072 4067 c2 -19 7 -33 12 -29 5 3 7 -5 3 -17 -8 -33 1 -50 24 -44
12 3 16 9 11 12 -14 8 -43 81 -37 91 3 5 1 11 -5 15 -6 4 -9 -7 -8 -28z"/>
<path d="M5100 4061 c0 -5 6 -14 14 -20 12 -10 13 -8 9 8 -5 21 -23 30 -23 12z"/>
<path d="M5160 4006 c0 -9 5 -16 11 -16 5 0 7 -6 3 -12 -5 -9 -2 -8 9 1 10 8
16 14 15 15 -2 1 -11 8 -20 15 -15 12 -18 11 -18 -3z"/>
<path d="M4942 3893 c5 -37 14 -76 21 -87 6 -12 10 -26 9 -32 -1 -7 4 -14 13
-18 8 -3 15 0 15 7 0 20 -55 197 -61 197 -3 0 -2 -30 3 -67z"/>
<path d="M4894 3905 c-17 -13 -17 -14 -2 -15 9 0 20 5 23 11 11 17 0 20 -21 4z"/>
<path d="M5145 3910 c-3 -5 -1 -10 4 -10 6 0 11 5 11 10 0 6 -2 10 -4 10 -3 0
-8 -4 -11 -10z"/>
<path d="M4902 3867 c-10 -11 -9 -17 3 -27 20 -17 27 -8 17 19 -7 19 -10 21
-20 8z"/>
<path d="M5110 3850 c0 -5 5 -10 10 -10 6 0 10 5 10 10 0 6 -4 10 -10 10 -5 0
-10 -4 -10 -10z"/>
<path d="M5363 3813 c4 -6 3 -14 -3 -18 -5 -3 -10 -17 -10 -30 0 -13 -4 -26
-10 -30 -11 -7 -2 -35 12 -35 5 0 6 5 3 10 -3 6 3 22 14 36 25 32 26 47 4 65
-10 8 -14 9 -10 2z"/>
<path d="M4900 3790 c0 -5 5 -10 11 -10 5 0 7 5 4 10 -3 6 -8 10 -11 10 -2 0
-4 -4 -4 -10z"/>
<path d="M4924 3773 c-14 -5 -9 -90 7 -140 10 -30 39 -47 39 -23 0 6 4 10 9
10 6 0 13 -21 16 -47 13 -93 23 -102 21 -17 -3 112 9 137 17 32 5 -77 31 -198
43 -198 2 0 2 15 0 33 -3 17 -5 32 -6 32 -4 0 -11 60 -25 220 -1 22 -8 51 -14
65 -10 23 -10 21 -6 -12 3 -22 1 -38 -5 -38 -6 0 -10 11 -10 25 0 14 -6 25
-12 25 -9 0 -12 -17 -11 -55 1 -32 -2 -55 -8 -55 -6 0 -8 16 -5 39 4 42 -4 64
-24 59 -7 -2 -15 3 -17 10 -3 8 1 10 14 5 16 -6 17 -5 3 13 -8 10 -14 20 -15
20 0 1 -5 -1 -11 -3z"/>
<path d="M5390 3707 c-14 -11 -25 -37 -16 -37 2 0 11 11 20 25 18 28 18 30 -4
12z"/>
<path d="M4971 3564 c0 -11 3 -14 6 -6 3 7 2 16 -1 19 -3 4 -6 -2 -5 -13z"/>
<path d="M5462 3565 c-9 -11 -9 -15 -1 -15 6 0 9 -7 6 -15 -9 -23 11 -28 23
-6 7 13 7 22 0 26 -6 4 -8 11 -5 16 10 14 -9 10 -23 -6z"/>
<path d="M4975 3530 c3 -5 8 -10 11 -10 2 0 4 5 4 10 0 6 -5 10 -11 10 -5 0
-7 -4 -4 -10z"/>
<path d="M4991 3484 c0 -11 3 -14 6 -6 3 7 2 16 -1 19 -3 4 -6 -2 -5 -13z"/>
<path d="M5081 3474 c0 -11 3 -14 6 -6 3 7 2 16 -1 19 -3 4 -6 -2 -5 -13z"/>
<path d="M5000 3440 c0 -5 5 -10 11 -10 5 0 7 5 4 10 -3 6 -8 10 -11 10 -2 0
-4 -4 -4 -10z"/>
<path d="M5035 3401 c-3 -5 -1 -12 5 -16 5 -3 10 1 10 9 0 18 -6 21 -15 7z"/>
<path d="M5027 3345 c9 -19 18 -33 20 -32 5 6 -21 67 -29 67 -4 0 0 -16 9 -35z"/>
<path d="M5081 3364 c0 -11 3 -14 6 -6 3 7 2 16 -1 19 -3 4 -6 -2 -5 -13z"/>
<path d="M5050 3363 c0 -4 5 -15 10 -23 8 -13 10 -13 10 2 0 9 -4 20 -10 23
-5 3 -10 3 -10 -2z"/>
<path d="M4927 3336 c-4 -10 -1 -13 9 -9 15 6 19 23 5 23 -5 0 -11 -7 -14 -14z"/>
<path d="M5060 3250 c0 -8 5 -22 10 -30 9 -13 10 -13 10 0 0 8 -5 22 -10 30
-9 13 -10 13 -10 0z"/>
<path d="M5740 2783 c1 -14 30 -47 36 -41 10 11 -7 48 -22 48 -8 0 -14 -3 -14
-7z"/>
<path d="M5585 2610 c-3 -5 -1 -10 4 -10 6 0 11 5 11 10 0 6 -2 10 -4 10 -3 0
-8 -4 -11 -10z"/>
<path d="M3000 4130 c0 -5 5 -10 10 -10 6 0 10 5 10 10 0 6 -4 10 -10 10 -5 0
-10 -4 -10 -10z"/>
<path d="M2990 4020 c0 -5 5 -10 11 -10 5 0 7 5 4 10 -3 6 -8 10 -11 10 -2 0
-4 -4 -4 -10z"/>
<path d="M3536 4035 c-3 -8 -1 -15 4 -15 6 0 10 7 10 15 0 8 -2 15 -4 15 -2 0
-6 -7 -10 -15z"/>
<path d="M3280 3333 c0 -14 19 -38 25 -32 8 8 -5 39 -16 39 -5 0 -9 -3 -9 -7z"/>
<path d="M4571 3484 c0 -11 3 -14 6 -6 3 7 2 16 -1 19 -3 4 -6 -2 -5 -13z"/>
<path d="M4605 2720 c3 -5 8 -10 11 -10 2 0 4 5 4 10 0 6 -5 10 -11 10 -5 0
-7 -4 -4 -10z"/>
<path d="M3695 3340 c-3 -5 1 -10 10 -10 9 0 13 5 10 10 -3 6 -8 10 -10 10 -2
0 -7 -4 -10 -10z"/>
</g>
</svg>
